<svg width="69" height="49" viewBox="0 0 69 49" fill="none" xmlns="http://www.w3.org/2000/svg">
<rect x="0.5" y="1" width="68" height="47" rx="3.5" fill="white" stroke="#F3F3F3"/>
<path d="M50.438 28.5026C48.2429 37.3744 39.3214 42.7673 30.5282 40.5558C21.7223 38.3444 16.3694 29.3562 18.5644 20.4973C20.7595 11.6255 29.6682 6.23261 38.4742 8.44409C47.2673 10.6426 52.6331 19.6308 50.438 28.5026Z" fill="url(#paint0_linear_54_1487)"/>
<path d="M42.3228 22.4375C42.6437 20.2392 40.988 19.0496 38.7034 18.2608L39.4478 15.2737L37.6509 14.8211L36.9322 17.7306C36.4573 17.6142 35.9696 17.4979 35.4819 17.3944L36.2006 14.472L34.4037 14.0194L33.6722 16.9935C33.2743 16.903 32.8892 16.8125 32.517 16.722V16.7091L30.0271 16.0884L29.5522 18.028C29.5522 18.028 30.887 18.3384 30.8613 18.3513C31.5929 18.5323 31.7213 19.0237 31.6956 19.4117L30.8485 22.8125C30.8998 22.8254 30.964 22.8384 31.041 22.8772C30.9768 22.8642 30.9127 22.8513 30.8485 22.8254L29.6677 27.5841C29.5778 27.8039 29.3468 28.1401 28.8463 28.0108C28.8591 28.0366 27.5371 27.6875 27.5371 27.6875L26.6387 29.7694L28.9874 30.3642C29.4238 30.4806 29.8474 30.5841 30.2709 30.7004L29.5265 33.7134L31.3234 34.166L32.0678 31.1789C32.5555 31.3082 33.0432 31.4375 33.5053 31.5539L32.7737 34.528L34.5706 34.9806L35.315 31.9677C38.3954 32.5496 40.7056 32.3168 41.6682 29.5108C42.4512 27.2608 41.6297 25.9548 40.0126 25.1013C41.2062 24.8298 42.0918 24.041 42.3228 22.4375ZM38.2028 28.2565C37.6509 30.5065 33.8775 29.291 32.6582 28.9806L33.6465 24.9849C34.8658 25.2953 38.7932 25.903 38.2028 28.2565ZM38.7676 22.3987C38.2542 24.4548 35.1225 23.4073 34.1085 23.1487L35.007 19.528C36.0209 19.7867 39.2938 20.2651 38.7676 22.3987Z" fill="white"/>
<defs>
<linearGradient id="paint0_linear_54_1487" x1="34.4921" y1="7.94045" x2="34.4921" y2="41.0483" gradientUnits="userSpaceOnUse">
<stop stop-color="#F9AA4B"/>
<stop offset="1" stop-color="#F7931A"/>
</linearGradient>
</defs>
</svg>
