<svg width="18" height="21" viewBox="0 0 18 21" fill="none" xmlns="http://www.w3.org/2000/svg">
<path fill-rule="evenodd" clip-rule="evenodd" d="M8.84571 5.06505C8.95891 5.16486 9.10991 5.21054 9.25951 5.19021C10.2606 5.00561 11.1561 4.45258 11.7695 3.64021C12.3659 2.88752 12.7151 1.96897 12.7695 1.01021C12.774 0.851333 12.7041 0.699453 12.5806 0.599453C12.4571 0.499443 12.294 0.462753 12.1395 0.500213C11.1746 0.752173 10.3116 1.29721 9.66951 2.06021C9.05941 2.79728 8.70811 3.71419 8.66951 4.67021C8.66811 4.82115 8.73241 4.96524 8.84571 5.06505ZM16.202 7.72573C15.6104 8.2809 14.6795 9.15444 14.6795 11.0102C14.6656 12.6671 15.5755 14.194 17.0395 14.9702C17.2206 15.052 17.3377 15.2315 17.3395 15.4302C17.3395 15.5002 15.2395 20.5002 12.7195 20.5002C12.1678 20.5002 11.8001 20.3263 11.3974 20.1359C10.9095 19.9052 10.37 19.6502 9.38951 19.6502C8.42311 19.6502 7.88231 19.8979 7.38458 20.1259C6.96045 20.3202 6.56766 20.5002 5.96952 20.5002C3.64952 20.5002 0.499523 15.6402 0.499523 11.2502C0.459663 10.0102 0.767973 8.78394 1.38952 7.71021C2.26612 6.22454 3.82713 5.27518 5.54952 5.18021C6.36119 5.18021 7.02563 5.41911 7.65411 5.64508C8.21811 5.84785 8.75311 6.04021 9.33951 6.04021C9.89941 6.04021 10.3512 5.86489 10.8468 5.67257C11.449 5.43894 12.1158 5.18021 13.1195 5.18021C14.9495 5.18021 16.6795 6.50021 16.6795 7.09021C16.6795 7.27768 16.4776 7.46717 16.202 7.72573Z" fill="#F1F1F1"/>
</svg>
