<svg width="181" height="52" viewBox="0 0 181 52" fill="none" xmlns="http://www.w3.org/2000/svg">
<path d="M179.623 46.0031C179.623 48.7743 177.332 51.0189 174.497 51.0189H6.75548C3.92255 51.0189 1.62305 48.7743 1.62305 46.0031V6.00357C1.62305 3.23374 3.92255 0.981201 6.75548 0.981201H174.496C177.332 0.981201 179.622 3.23374 179.622 6.00357L179.623 46.0031Z" fill="black"/>
<path d="M173.956 1.04162C177.043 1.04162 179.555 3.4905 179.555 6.5V45.5C179.555 48.5095 177.043 50.9584 173.956 50.9584H7.28971C4.20305 50.9584 1.69138 48.5095 1.69138 45.5V6.5C1.69138 3.4905 4.20305 1.04162 7.28971 1.04162H173.956ZM173.956 2.74817e-06H7.28971C3.62471 2.74817e-06 0.623047 2.92663 0.623047 6.5V45.5C0.623047 49.0734 3.62471 52 7.28971 52H173.956C177.621 52 180.623 49.0734 180.623 45.5V6.5C180.623 2.92663 177.621 2.74817e-06 173.956 2.74817e-06Z" fill="#A6A6A6"/>
<path d="M40.7945 25.7191C40.7558 21.5292 44.3131 19.4908 44.4758 19.3959C42.4611 16.532 39.3385 16.1407 38.2411 16.1095C35.6185 15.8404 33.0745 17.6396 31.7385 17.6396C30.3758 17.6396 28.3185 16.1355 26.1011 16.1797C23.2478 16.2226 20.5785 17.8333 19.1145 20.3345C16.0931 25.4344 18.3465 32.9289 21.2411 37.0512C22.6891 39.0701 24.3811 41.3243 26.5958 41.245C28.7625 41.1579 29.5718 39.8982 32.1865 39.8982C34.7771 39.8982 35.5371 41.245 37.7958 41.1943C40.1211 41.1579 41.5851 39.1663 42.9825 37.1292C44.6558 34.8152 45.3278 32.5363 45.3545 32.4193C45.2998 32.4011 40.8385 30.741 40.7945 25.7191Z" fill="white"/>
<path d="M36.5278 13.3977C37.6931 11.9768 38.4905 10.0437 38.2691 8.08203C36.5825 8.15483 34.4731 9.21953 33.2585 10.6092C32.1838 11.8338 31.2238 13.841 31.4718 15.7286C33.3665 15.8664 35.3118 14.7965 36.5278 13.3977Z" fill="white"/>
<path d="M72.1499 40.9552H69.1219L67.4633 35.8735H61.6979L60.1179 40.9552H57.1699L62.8819 23.6548H66.4099L72.1499 40.9552ZM66.9633 33.7415L65.4633 29.224C65.3046 28.7625 65.0073 27.6757 64.5686 25.9649H64.5153C64.3406 26.7007 64.0593 27.7875 63.6726 29.224L62.1993 33.7415H66.9633Z" fill="white"/>
<path d="M86.8389 34.5645C86.8389 36.6861 86.2509 38.3631 85.0749 39.5942C84.0216 40.6901 82.7136 41.2374 81.1522 41.2374C79.4669 41.2374 78.2562 40.6472 77.5189 39.4668H77.4656V46.0383H74.6229V32.5872C74.6229 31.2534 74.5869 29.8845 74.5176 28.4805H77.0176L77.1762 30.4578H77.2296C78.1776 28.968 79.6162 28.2244 81.5469 28.2244C83.0562 28.2244 84.3162 28.8055 85.3242 29.969C86.3349 31.1338 86.8389 32.6652 86.8389 34.5645ZM83.9429 34.6659C83.9429 33.4517 83.6629 32.4507 83.1002 31.6629C82.4856 30.8413 81.6602 30.4305 80.6256 30.4305C79.9242 30.4305 79.2869 30.6593 78.7176 31.1104C78.1469 31.5654 77.7736 32.1595 77.5989 32.8953C77.5109 33.2385 77.4669 33.5193 77.4669 33.7403V35.8203C77.4669 36.7277 77.7522 37.4934 78.3229 38.1187C78.8936 38.744 79.6349 39.056 80.5469 39.056C81.6176 39.056 82.4509 38.653 83.0469 37.8496C83.6442 37.0449 83.9429 35.9841 83.9429 34.6659Z" fill="white"/>
<path d="M101.554 34.5645C101.554 36.6861 100.966 38.3631 99.789 39.5942C98.737 40.6901 97.429 41.2374 95.8677 41.2374C94.1824 41.2374 92.9717 40.6472 92.2357 39.4668H92.1824V46.0383H89.3397V32.5872C89.3397 31.2534 89.3037 29.8845 89.2344 28.4805H91.7344L91.893 30.4578H91.9464C92.893 28.968 94.3317 28.2244 96.2637 28.2244C97.7717 28.2244 99.0317 28.8055 100.042 29.969C101.049 31.1338 101.554 32.6652 101.554 34.5645ZM98.6584 34.6659C98.6584 33.4517 98.377 32.4507 97.8144 31.6629C97.1997 30.8413 96.377 30.4305 95.341 30.4305C94.6384 30.4305 94.0024 30.6593 93.4317 31.1104C92.861 31.5654 92.489 32.1595 92.3144 32.8953C92.2277 33.2385 92.1824 33.5193 92.1824 33.7403V35.8203C92.1824 36.7277 92.4677 37.4934 93.0357 38.1187C93.6064 38.7427 94.3477 39.056 95.2624 39.056C96.333 39.056 97.1664 38.653 97.7624 37.8496C98.3597 37.0449 98.6584 35.9841 98.6584 34.6659Z" fill="white"/>
<path d="M118.008 36.1037C118.008 37.5753 117.484 38.7726 116.432 39.6969C115.276 40.707 113.667 41.2114 111.599 41.2114C109.689 41.2114 108.159 40.8526 107 40.1337L107.659 37.8236C108.907 38.5594 110.276 38.9286 111.768 38.9286C112.839 38.9286 113.672 38.692 114.271 38.2214C114.867 37.7508 115.164 37.119 115.164 36.3312C115.164 35.6292 114.919 35.0377 114.427 34.558C113.937 34.0783 113.12 33.6324 111.979 33.2203C108.872 32.0906 107.32 30.4357 107.32 28.2595C107.32 26.8373 107.864 25.6712 108.953 24.7638C110.039 23.8551 111.487 23.4014 113.297 23.4014C114.912 23.4014 116.253 23.6757 117.324 24.223L116.613 26.4824C115.613 25.952 114.483 25.6868 113.217 25.6868C112.217 25.6868 111.436 25.9273 110.876 26.4057C110.403 26.8334 110.165 27.3547 110.165 27.9722C110.165 28.656 110.436 29.2215 110.98 29.6661C111.453 30.0769 112.313 30.5215 113.561 31.0012C115.088 31.6005 116.209 32.3012 116.931 33.1046C117.649 33.9054 118.008 34.9077 118.008 36.1037Z" fill="white"/>
<path d="M127.407 30.5604H124.274V36.6171C124.274 38.1576 124.826 38.9272 125.933 38.9272C126.441 38.9272 126.862 38.8843 127.195 38.7985L127.274 40.9032C126.714 41.1073 125.977 41.21 125.063 41.21C123.941 41.21 123.063 40.8759 122.43 40.209C121.799 39.5408 121.482 38.4202 121.482 36.8459V30.5578H119.615V28.4778H121.482V26.1937L124.274 25.3721V28.4778H127.407V30.5604Z" fill="white"/>
<path d="M141.544 34.6151C141.544 36.5326 140.981 38.1069 139.858 39.338C138.681 40.6055 137.118 41.2373 135.17 41.2373C133.293 41.2373 131.798 40.6302 130.684 39.416C129.569 38.2018 129.012 36.6691 129.012 34.8218C129.012 32.8887 129.585 31.3053 130.736 30.0742C131.884 28.8418 133.433 28.2256 135.381 28.2256C137.258 28.2256 138.769 28.8327 139.909 30.0482C141 31.2273 141.544 32.7496 141.544 34.6151ZM138.594 34.7048C138.594 33.5543 138.342 32.5676 137.832 31.7447C137.236 30.7489 136.384 30.2523 135.28 30.2523C134.137 30.2523 133.269 30.7502 132.673 31.7447C132.162 32.5689 131.91 33.5712 131.91 34.7568C131.91 35.9073 132.162 36.894 132.673 37.7156C133.288 38.7114 134.146 39.208 135.254 39.208C136.34 39.208 137.192 38.701 137.806 37.6896C138.33 36.8511 138.594 35.854 138.594 34.7048Z" fill="white"/>
<path d="M150.785 30.918C150.503 30.8673 150.203 30.8413 149.889 30.8413C148.889 30.8413 148.115 31.2092 147.571 31.9463C147.098 32.5963 146.861 33.4179 146.861 34.4098V40.9553H144.019L144.046 32.4091C144.046 30.9713 144.01 29.6622 143.939 28.4818H146.415L146.519 30.8686H146.598C146.898 30.0483 147.371 29.3879 148.019 28.8926C148.653 28.4467 149.337 28.2244 150.074 28.2244C150.337 28.2244 150.574 28.2426 150.785 28.2751V30.918Z" fill="white"/>
<path d="M163.498 34.1276C163.498 34.6242 163.464 35.0428 163.394 35.3847H154.866C154.899 36.6171 155.311 37.5596 156.103 38.2096C156.822 38.7907 157.751 39.0819 158.892 39.0819C160.155 39.0819 161.307 38.8856 162.343 38.4917L162.788 40.4157C161.578 40.9305 160.148 41.1866 158.499 41.1866C156.515 41.1866 154.958 40.6172 153.824 39.4797C152.694 38.3422 152.127 36.8147 152.127 34.8985C152.127 33.0174 152.654 31.4509 153.708 30.2016C154.812 28.8678 156.304 28.2009 158.182 28.2009C160.026 28.2009 161.422 28.8678 162.37 30.2016C163.12 31.2611 163.498 32.5715 163.498 34.1276ZM160.787 33.4087C160.806 32.5871 160.62 31.8773 160.235 31.278C159.743 30.5071 158.987 30.1223 157.97 30.1223C157.04 30.1223 156.284 30.498 155.707 31.252C155.234 31.8513 154.952 32.5702 154.866 33.4074H160.787V33.4087Z" fill="white"/>
<path d="M66.0228 13.0116C66.0228 14.5417 65.5521 15.6935 64.6121 16.467C63.7414 17.1807 62.5041 17.5382 60.9014 17.5382C60.1068 17.5382 59.4268 17.5044 58.8574 17.4368V9.07646C59.6001 8.95946 60.4001 8.89966 61.2641 8.89966C62.7908 8.89966 63.9414 9.22336 64.7174 9.87076C65.5868 10.6027 66.0228 11.6492 66.0228 13.0116ZM64.5494 13.0493C64.5494 12.0574 64.2801 11.2969 63.7414 10.7665C63.2028 10.2374 62.4161 9.97216 61.3801 9.97216C60.9401 9.97216 60.5654 10.0008 60.2548 10.0606V16.4163C60.4268 16.4423 60.7414 16.454 61.1988 16.454C62.2681 16.454 63.0934 16.1641 63.6748 15.5843C64.2561 15.0045 64.5494 14.1595 64.5494 13.0493Z" fill="white"/>
<path d="M73.8357 14.3479C73.8357 15.2904 73.5597 16.0626 73.0077 16.6684C72.429 17.2911 71.6624 17.6018 70.705 17.6018C69.7824 17.6018 69.0477 17.3041 68.4997 16.7061C67.953 16.1094 67.6797 15.3567 67.6797 14.4493C67.6797 13.5003 67.961 12.7216 68.5264 12.1171C69.0917 11.5126 69.8517 11.2097 70.809 11.2097C71.7317 11.2097 72.473 11.5074 73.0344 12.1041C73.5677 12.6839 73.8357 13.4327 73.8357 14.3479ZM72.3864 14.3921C72.3864 13.8266 72.261 13.3417 72.0117 12.9374C71.7184 12.4486 71.301 12.2042 70.7584 12.2042C70.197 12.2042 69.7704 12.4486 69.477 12.9374C69.2264 13.3417 69.1024 13.8344 69.1024 14.4168C69.1024 14.9823 69.2277 15.4672 69.477 15.8715C69.7797 16.3603 70.201 16.6047 70.745 16.6047C71.2784 16.6047 71.697 16.3564 71.9984 15.8585C72.257 15.4464 72.3864 14.9576 72.3864 14.3921Z" fill="white"/>
<path d="M84.3098 11.3347L82.3431 17.4629H81.0631L80.2485 14.8018C80.0418 14.1375 79.8738 13.4771 79.7431 12.8219H79.7178C79.5965 13.4953 79.4285 14.1544 79.2125 14.8018L78.3471 17.4629H77.0525L75.2031 11.3347H76.6391L77.3498 14.248C77.5218 14.937 77.6631 15.5935 77.7765 16.2149H77.8018C77.9058 15.7027 78.0778 15.0501 78.3205 14.261L79.2125 11.336H80.3511L81.2058 14.1986C81.4125 14.8967 81.5805 15.5688 81.7098 16.2162H81.7485C81.8431 15.5857 81.9858 14.9136 82.1751 14.1986L82.9378 11.336H84.3098V11.3347Z" fill="white"/>
<path d="M91.5542 17.4627H90.1569V13.9527C90.1569 12.8711 89.7356 12.3303 88.8902 12.3303C88.4756 12.3303 88.1409 12.4785 87.8809 12.7762C87.6236 13.0739 87.4929 13.4249 87.4929 13.8266V17.4614H86.0956V13.0856C86.0956 12.5474 86.0783 11.9637 86.0449 11.3319H87.2729L87.3383 12.29H87.3769C87.5396 11.9923 87.7823 11.7466 88.1009 11.5503C88.4796 11.3215 88.9036 11.2058 89.3676 11.2058C89.9542 11.2058 90.4422 11.3904 90.8302 11.7609C91.3129 12.2146 91.5542 12.8919 91.5542 13.7915V17.4627Z" fill="white"/>
<path d="M95.4077 17.4628H94.0117V8.52271H95.4077V17.4628Z" fill="white"/>
<path d="M103.633 14.3479C103.633 15.2904 103.357 16.0626 102.805 16.6684C102.226 17.2911 101.458 17.6018 100.502 17.6018C99.5779 17.6018 98.8432 17.3041 98.2966 16.7061C97.7499 16.1094 97.4766 15.3567 97.4766 14.4493C97.4766 13.5003 97.7579 12.7216 98.3232 12.1171C98.8886 11.5126 99.6486 11.2097 100.605 11.2097C101.529 11.2097 102.269 11.5074 102.831 12.1041C103.365 12.6839 103.633 13.4327 103.633 14.3479ZM102.182 14.3921C102.182 13.8266 102.057 13.3417 101.807 12.9374C101.515 12.4486 101.097 12.2042 100.555 12.2042C99.9926 12.2042 99.5659 12.4486 99.2739 12.9374C99.0232 13.3417 98.8992 13.8344 98.8992 14.4168C98.8992 14.9823 99.0246 15.4672 99.2739 15.8715C99.5766 16.3603 99.9979 16.6047 100.542 16.6047C101.075 16.6047 101.493 16.3564 101.794 15.8585C102.054 15.4464 102.182 14.9576 102.182 14.3921Z" fill="white"/>
<path d="M110.396 17.4627H109.142L109.038 16.7568H108.999C108.57 17.3197 107.958 17.6018 107.163 17.6018C106.57 17.6018 106.09 17.4159 105.728 17.0467C105.4 16.7113 105.236 16.294 105.236 15.7987C105.236 15.0499 105.556 14.4792 106.2 14.084C106.843 13.6888 107.747 13.4951 108.911 13.5042V13.3898C108.911 12.5825 108.476 12.1795 107.606 12.1795C106.986 12.1795 106.439 12.3316 105.967 12.6332L105.683 11.7388C106.267 11.3865 106.988 11.2097 107.839 11.2097C109.482 11.2097 110.306 12.0547 110.306 13.7447V16.0015C110.306 16.6138 110.336 17.1013 110.396 17.4627ZM108.946 15.3567V14.4116C107.404 14.3856 106.634 14.7977 106.634 15.6466C106.634 15.9664 106.722 16.2056 106.902 16.3655C107.082 16.5254 107.311 16.6047 107.584 16.6047C107.891 16.6047 108.178 16.5098 108.439 16.3213C108.702 16.1315 108.863 15.891 108.923 15.5959C108.938 15.5296 108.946 15.449 108.946 15.3567Z" fill="white"/>
<path d="M118.336 17.4628H117.096L117.031 16.4787H116.992C116.596 17.2275 115.921 17.6019 114.973 17.6019C114.216 17.6019 113.585 17.312 113.085 16.7322C112.585 16.1524 112.336 15.3997 112.336 14.4754C112.336 13.4835 112.607 12.6801 113.151 12.0665C113.677 11.4945 114.323 11.2085 115.091 11.2085C115.935 11.2085 116.525 11.4854 116.861 12.0405H116.888V8.52271H118.287V15.8118C118.287 16.4085 118.303 16.9584 118.336 17.4628ZM116.888 14.8784V13.8566C116.888 13.6798 116.875 13.5368 116.849 13.4276C116.771 13.1 116.601 12.8244 116.344 12.6021C116.084 12.3798 115.771 12.268 115.409 12.268C114.888 12.268 114.48 12.4695 114.18 12.8738C113.883 13.2781 113.732 13.7942 113.732 14.4247C113.732 15.0305 113.875 15.5219 114.161 15.9002C114.464 16.3032 114.872 16.5047 115.383 16.5047C115.841 16.5047 116.208 16.337 116.487 16.0003C116.756 15.6896 116.888 15.3152 116.888 14.8784Z" fill="white"/>
<path d="M130.287 14.3479C130.287 15.2904 130.011 16.0626 129.459 16.6684C128.88 17.2911 128.115 17.6018 127.156 17.6018C126.235 17.6018 125.5 17.3041 124.951 16.7061C124.404 16.1094 124.131 15.3567 124.131 14.4493C124.131 13.5003 124.412 12.7216 124.978 12.1171C125.543 11.5126 126.303 11.2097 127.262 11.2097C128.183 11.2097 128.926 11.5074 129.486 12.1041C130.019 12.6839 130.287 13.4327 130.287 14.3479ZM128.839 14.3921C128.839 13.8266 128.714 13.3417 128.464 12.9374C128.17 12.4486 127.754 12.2042 127.21 12.2042C126.65 12.2042 126.223 12.4486 125.928 12.9374C125.678 13.3417 125.554 13.8344 125.554 14.4168C125.554 14.9823 125.679 15.4672 125.928 15.8715C126.231 16.3603 126.652 16.6047 127.196 16.6047C127.73 16.6047 128.15 16.3564 128.451 15.8585C128.708 15.4464 128.839 14.9576 128.839 14.3921Z" fill="white"/>
<path d="M137.801 17.4627H136.405V13.9527C136.405 12.8711 135.984 12.3303 135.137 12.3303C134.722 12.3303 134.388 12.4785 134.129 12.7762C133.87 13.0739 133.741 13.4249 133.741 13.8266V17.4614H132.342V13.0856C132.342 12.5474 132.326 11.9637 132.293 11.3319H133.52L133.585 12.29H133.624C133.788 11.9923 134.03 11.7466 134.348 11.5503C134.728 11.3215 135.15 11.2058 135.616 11.2058C136.201 11.2058 136.689 11.3904 137.077 11.7609C137.561 12.2146 137.801 12.8919 137.801 13.7915V17.4627Z" fill="white"/>
<path d="M147.205 12.355H145.666V15.332C145.666 16.0886 145.94 16.4669 146.481 16.4669C146.732 16.4669 146.94 16.4461 147.104 16.4032L147.14 17.4367C146.864 17.5381 146.501 17.5888 146.054 17.5888C145.502 17.5888 145.073 17.425 144.762 17.0974C144.45 16.7698 144.296 16.2186 144.296 15.4451V12.355H143.377V11.3345H144.296V10.2113L145.665 9.80835V11.3333H147.204V12.355H147.205Z" fill="white"/>
<path d="M154.601 17.4628H153.203V13.9788C153.203 12.8803 152.781 12.3304 151.937 12.3304C151.289 12.3304 150.847 12.6489 150.604 13.2859C150.563 13.4198 150.539 13.5836 150.539 13.776V17.4615H149.143V8.52271H150.539V12.216H150.565C151.005 11.5439 151.636 11.2085 152.453 11.2085C153.032 11.2085 153.511 11.3931 153.891 11.7636C154.364 12.2251 154.601 12.9115 154.601 13.8189V17.4628Z" fill="white"/>
<path d="M162.233 14.1087C162.233 14.3531 162.214 14.5585 162.181 14.7262H157.99C158.009 15.332 158.209 15.7935 158.597 16.1133C158.951 16.3993 159.409 16.5423 159.969 16.5423C160.589 16.5423 161.154 16.4461 161.663 16.2524L161.882 17.1988C161.286 17.451 160.585 17.5771 159.773 17.5771C158.799 17.5771 158.033 17.2976 157.478 16.7386C156.921 16.1796 156.645 15.4295 156.645 14.4883C156.645 13.564 156.902 12.7944 157.421 12.1808C157.962 11.5256 158.694 11.198 159.618 11.198C160.522 11.198 161.209 11.5256 161.673 12.1808C162.047 12.7008 162.233 13.3443 162.233 14.1087ZM160.899 13.7564C160.91 13.3521 160.818 13.0037 160.629 12.7099C160.386 12.3316 160.017 12.1418 159.517 12.1418C159.061 12.1418 158.689 12.3264 158.405 12.6969C158.173 12.992 158.035 13.3443 157.99 13.7564H160.899Z" fill="white"/>
</svg>
