<svg width="22" height="20" viewBox="0 0 22 20" fill="none" xmlns="http://www.w3.org/2000/svg">
<path d="M18 12L18 0H22L22 12H18ZM14 0C14.5304 0 15.0391 0.210714 15.4142 0.585787C15.7893 0.960859 16 1.46957 16 2V12C16 12.55 15.78 13.05 15.41 13.41L8.83 20L7.77 18.94C7.5 18.67 7.33 18.3 7.33 17.89L7.36 17.57L8.31 13L2 13C1.46957 13 0.960859 12.7893 0.585787 12.4142C0.210714 12.0391 0 11.5304 0 11V9C0 8.74 0.0499992 8.5 0.139999 8.27L3.16 1.22C3.46 0.5 4.17 0 5 0L14 0ZM14 2L4.97 2L2 9V11H10.79L9.66 16.32L14 11.97L14 2Z" fill="#F1F1F1"/>
</svg>
