<!DOCTYPE svg PUBLIC "-//W3C//DTD SVG 1.1//EN" "http://www.w3.org/Graphics/SVG/1.1/DTD/svg11.dtd">
<!-- Uploaded to: SVG Repo, www.svgrepo.com, Transformed by: SVG Repo Mixer Tools -->
<svg fill="#FF6417" width="800px" height="800px" viewBox="0 0 32 32" id="icon" xmlns="http://www.w3.org/2000/svg">
<g id="SVGRepo_bgCarrier" stroke-width="0"/>
<g id="SVGRepo_tracerCarrier" stroke-linecap="round" stroke-linejoin="round"/>
<g id="SVGRepo_iconCarrier"> <defs> <style> .cls-1 { fill: none; } </style> </defs> <circle cx="10" cy="28" r="2"/> <circle cx="24" cy="28" r="2"/> <path d="M4.9806,2.8039A1,1,0,0,0,4,2H0V4H3.18L7.0194,23.1961A1,1,0,0,0,8,24H26V22H8.82l-.8-4H26a1,1,0,0,0,.9762-.783L29.2445,7H27.1971l-1.9989,9H7.62Z" transform="translate(0)"/> <polygon points="18.41 8 22 4.41 20.59 3 17 6.59 13.41 3 12 4.41 15.59 8 12 11.59 13.41 13 17 9.41 20.59 13 22 11.59 18.41 8"/> <rect id="_Transparent_Rectangle_" data-name="&lt;Transparent Rectangle&gt;" class="cls-1" width="32" height="32"/> </g>
</svg>