<svg width="11" height="19" viewBox="0 0 11 19" fill="none" xmlns="http://www.w3.org/2000/svg">
<path d="M10 3.5H7C6.4477 3.5 6 3.94772 6 4.5V7.5H10C10.1137 7.49748 10.2216 7.5504 10.2892 7.6419C10.3568 7.7334 10.3758 7.852 10.34 7.96L9.6 10.16C9.5318 10.3619 9.3431 10.4984 9.13 10.5H6V18C6 18.2761 5.7761 18.5 5.5 18.5H3C2.72386 18.5 2.5 18.2761 2.5 18V10.5H1C0.72386 10.5 0.5 10.2761 0.5 10V8C0.5 7.7239 0.72386 7.5 1 7.5H2.5V4.5C2.5 2.29086 4.2909 0.5 6.5 0.5H10C10.2761 0.5 10.5 0.72386 10.5 1V3C10.5 3.27614 10.2761 3.5 10 3.5Z" fill="#F1F1F1"/>
</svg>
