<svg width="72" height="53" viewBox="0 0 72 53" fill="none" xmlns="http://www.w3.org/2000/svg">
<path d="M18.125 52.5C13.1958 52.5 8.98384 50.7938 5.489 47.3813C1.99417 43.9688 0.247835 39.7979 0.250002 34.8688C0.250002 30.6438 1.52292 26.8792 4.06875 23.575C6.61459 20.2708 9.94584 18.1583 14.0625 17.2375C14.9833 13.3375 17.2854 9.6271 20.9688 6.10626C24.6521 2.58543 28.5792 0.825012 32.75 0.825012C34.5375 0.825012 36.0683 1.46201 37.3423 2.73601C38.6163 4.01001 39.2522 5.53968 39.25 7.32501V26.9875L44.45 21.95L49 26.5L36 39.5L23 26.5L27.55 21.95L32.75 26.9875V7.32501C28.6333 8.08335 25.4375 10.0745 23.1625 13.2985C20.8875 16.5225 19.75 19.8397 19.75 23.25H18.125C14.9833 23.25 12.3021 24.3604 10.0813 26.5813C7.86042 28.8021 6.75 31.4833 6.75 34.625C6.75 37.7667 7.86042 40.4479 10.0813 42.6688C12.3021 44.8896 14.9833 46 18.125 46H57.125C59.4 46 61.3229 45.2146 62.8937 43.6438C64.4646 42.0729 65.25 40.15 65.25 37.875C65.25 35.6 64.4646 33.6771 62.8937 32.1063C61.3229 30.5354 59.4 29.75 57.125 29.75H52.25V23.25C52.25 20.65 51.6542 18.2255 50.4625 15.9765C49.2708 13.7275 47.7 11.8187 45.75 10.25V2.69376C49.7583 4.5896 52.9271 7.39326 55.2562 11.1048C57.5854 14.8163 58.75 18.8647 58.75 23.25C62.4875 23.6833 65.5891 25.2953 68.0548 28.086C70.5204 30.8767 71.7522 34.1397 71.75 37.875C71.75 41.9375 70.3276 45.3912 67.4827 48.236C64.6379 51.0808 61.1853 52.5022 57.125 52.5H18.125Z" fill="#FF6417"/>
</svg>
