<svg width="65" height="59" viewBox="0 0 65 59" fill="none" xmlns="http://www.w3.org/2000/svg">
<path d="M32.5 0C14.625 0 0 11.635 0 26C0.0816024 29.4538 0.925036 32.8469 2.47003 35.9369C4.01503 39.0269 6.22346 41.7375 8.9375 43.875C8.9375 45.825 7.5725 50.9275 0 58.5C7.7025 58.1425 15.08 55.25 21.0275 50.375C24.7325 51.4475 28.6325 52 32.5 52C50.375 52 65 40.365 65 26C65 11.635 50.375 0 32.5 0ZM32.5 45.5C18.135 45.5 6.5 36.7575 6.5 26C6.5 15.2425 18.135 6.5 32.5 6.5C46.865 6.5 58.5 15.2425 58.5 26C58.5 36.7575 46.865 45.5 32.5 45.5ZM48.75 29.25V22.75H42.25V29.25H48.75ZM35.75 29.25V22.75H29.25V29.25H35.75ZM22.75 29.25V22.75H16.25V29.25H22.75Z" fill="#FF6417"/>
</svg>
