<svg width="60" height="65" viewBox="0 0 60 65" fill="none" xmlns="http://www.w3.org/2000/svg">
<path d="M27.7185 0.633751C29.001 0.153896 30.4023 0.0913379 31.7225 0.455001L32.2815 0.633751L55.0315 9.165C56.185 9.59754 57.1919 10.349 57.9347 11.3318C58.6776 12.3146 59.1258 13.4882 59.2272 14.716L59.25 15.2522V32.682C59.2499 37.9484 57.8279 43.117 55.1342 47.6424C52.4405 52.1677 48.575 55.8819 43.9458 58.3927L43.0812 58.8445L32.1807 64.2948C31.5806 64.5944 30.925 64.767 30.255 64.8017C29.5851 64.8363 28.9152 64.7324 28.2872 64.4962L27.8193 64.2948L16.9187 58.8445C12.2082 56.4892 8.22102 52.9058 5.37801 48.4725C2.53501 44.0392 0.941687 38.9206 0.76625 33.657L0.75 32.682V15.2522C0.750019 14.0209 1.09979 12.8149 1.75858 11.7747C2.41738 10.7344 3.35811 9.90265 4.47125 9.37625L4.9685 9.165L27.7185 0.633751ZM30 6.721L7.25 15.2522V32.682C7.25008 36.7608 8.34672 40.7645 10.4251 44.274C12.5035 47.7836 15.4872 50.6698 19.0638 52.6305L19.8275 53.0302L30 58.1165L40.1725 53.0302C43.8214 51.2062 46.9126 48.4345 49.1226 45.0056C51.3325 41.5766 52.5798 37.6165 52.7338 33.54L52.75 32.682V15.2522L30 6.721ZM41.1572 21.5442C41.7421 20.9614 42.5269 20.623 43.3522 20.5978C44.1776 20.5726 44.9816 20.8624 45.6009 21.4086C46.2202 21.9547 46.6085 22.716 46.6868 23.538C46.7651 24.36 46.5276 25.181 46.0225 25.8343L45.7528 26.1397L28.7423 43.1535C28.1226 43.773 27.297 44.1434 26.4223 44.1944C25.5476 44.2453 24.6846 43.9732 23.9972 43.4297L23.6853 43.1535L15.8722 35.3405C15.2832 34.757 14.9394 33.9704 14.9113 33.1417C14.8832 32.313 15.1728 31.505 15.721 30.8829C16.2692 30.2608 17.0344 29.8717 17.86 29.7953C18.6857 29.719 19.5093 29.961 20.1622 30.472L20.4678 30.7417L26.2138 36.4877L41.1572 21.5442Z" fill="#FF6417"/>
</svg>
