<svg width="21" height="20" viewBox="0 0 21 20" fill="none" xmlns="http://www.w3.org/2000/svg">
<path d="M10.5 0C16.023 0 20.5 4.477 20.5 10C20.5 15.523 16.023 20 10.5 20C4.977 20 0.5 15.523 0.5 10C0.5 4.477 4.977 0 10.5 0ZM10.5 1.395C8.21781 1.395 6.0291 2.3016 4.41535 3.91535C2.8016 5.5291 1.895 7.71781 1.895 10C1.895 12.2822 2.8016 14.4709 4.41535 16.0847C6.0291 17.6984 8.21781 18.605 10.5 18.605C12.7822 18.605 14.9709 17.6984 16.5847 16.0847C18.1984 14.4709 19.105 12.2822 19.105 10C19.105 7.71781 18.1984 5.5291 16.5847 3.91535C14.9709 2.3016 12.7822 1.395 10.5 1.395ZM12.548 3.488C13.1981 3.73383 13.8061 4.07929 14.35 4.512C14.475 4.608 14.595 4.71 14.713 4.819C14.735 4.838 14.754 4.858 14.775 4.879C15.103 5.182 15.401 5.523 15.665 5.889C15.702 5.94 15.741 5.987 15.775 6.036C15.839 6.13 15.899 6.228 15.959 6.326C16.0622 6.49129 16.1573 6.66149 16.244 6.836C16.297 6.936 16.344 7.045 16.393 7.151C16.426 7.224 16.463 7.299 16.493 7.377C16.566 7.559 16.631 7.742 16.69 7.929C16.709 7.991 16.724 8.057 16.742 8.119C16.8434 8.4748 16.9154 8.83837 16.957 9.206C16.964 9.272 16.974 9.342 16.979 9.407C16.999 9.622 17.012 9.839 17.012 10.057C17.0107 10.483 16.9716 10.908 16.895 11.327C16.881 11.4 16.869 11.474 16.855 11.544C16.815 11.734 16.769 11.92 16.715 12.104C16.206 11.871 15.608 11.528 15.452 11.151C15.168 10.471 14.412 10.131 14.104 9.255C13.597 7.805 14.27 7.843 14.364 6.943C14.408 6.521 14.104 6.433 13.703 6.605C12.767 6.998 12.45 6.847 12.261 6.142C12.072 5.439 12.261 5.243 12.261 5.243C11.623 5.313 11.599 4.536 11.93 4.34C12.16 4.208 12.355 3.803 12.548 3.488ZM9.874 7.797C10.464 7.527 11.009 7.43 10.937 6.966C10.867 6.507 10.701 6.165 9.779 6.165C8.857 6.165 9.259 7.43 8.503 6.675C7.747 5.925 8.668 6.119 9.046 5.948C9.425 5.776 9.803 5.071 9.141 5.021C8.48 4.974 8.621 5.313 8.101 5.121C7.581 4.925 7.345 5.8 7.013 5.678C6.795 5.596 6.21 5.146 5.822 4.703C5.03027 5.39163 4.40348 6.24945 3.988 7.213C4.101 8.52 4.792 9.206 4.792 9.206C4.792 9.206 5.147 10.057 7.275 11.103C7.275 11.103 7.675 11.127 7.203 10.642C6.731 10.155 6.21 9.547 6.801 9.232C7.391 8.913 7.558 8.94 7.7 9.525C7.841 10.109 8.315 9.765 8.361 9.206C8.409 8.649 9.283 8.067 9.874 7.797ZM9.424 10.737C10.442 10.737 10.347 11.054 11.151 11.762C11.954 12.466 11.529 13.171 11.126 13.707C10.725 14.241 10.37 14.847 10.181 15.945C9.991 17.039 9.495 16.259 9.331 15.992C9.165 15.723 8.905 15.481 8.977 14.362C9.047 13.244 8.29 13.902 8.031 12.442C7.771 10.984 8.409 10.738 9.425 10.738L9.424 10.737ZM14.401 11.701C14.672 11.528 15.321 11.979 15.181 12.454C15.038 12.929 14.59 12.661 14.365 12.454C14.14 12.248 14.128 11.871 14.401 11.701Z" fill="#F1F1F1"/>
</svg>
