<svg width="48" height="19" viewBox="0 0 48 19" fill="none" xmlns="http://www.w3.org/2000/svg">
<path fill-rule="evenodd" clip-rule="evenodd" d="M8.06412 3.57273C9.18478 3.55484 10.2676 3.96865 11.0786 4.72473L13.3215 2.53273C11.8993 1.22721 10.0152 0.510459 8.06412 0.53273C5.0935 0.532863 2.37686 2.17011 1.04297 4.7642L3.65257 6.74287C4.27468 4.92313 6.01442 3.57273 8.06412 3.57273Z" fill="#EA4335"/>
<path fill-rule="evenodd" clip-rule="evenodd" d="M3.6534 9.68207C3.32451 8.72852 3.32451 7.69589 3.6534 6.74234V4.76367H1.0438C-0.0718909 6.93341 -0.0718909 9.491 1.0438 11.6607L3.6534 9.68207Z" fill="#FBBC04"/>
<path fill-rule="evenodd" clip-rule="evenodd" d="M8.06412 15.8928C10.1848 15.8928 11.9703 15.2122 13.2724 14.0389L10.7392 12.1189C10.0341 12.5861 9.12608 12.8528 8.06412 12.8528C6.01442 12.8528 4.27468 11.5024 3.65257 9.68262H1.04297V11.6613C2.37686 14.2554 5.0935 15.8926 8.06412 15.8928Z" fill="#34A853"/>
<path fill-rule="evenodd" clip-rule="evenodd" d="M15.6106 8.38777C15.6112 7.86441 15.566 7.34197 15.4752 6.82617H8.06445V9.78404H12.309C12.1335 10.7387 11.5665 11.5817 10.7395 12.1179V14.0379H13.2727C14.756 12.7014 15.6106 10.7248 15.6106 8.38777Z" fill="#4285F4"/>
<path fill-rule="evenodd" clip-rule="evenodd" d="M47.792 5.82129L41.9244 19H40.1105L42.2879 14.3888L38.4297 5.82129H40.3397L43.1283 12.392H43.1665L45.8787 5.82129L47.792 5.82129Z" fill="#5F6368"/>
<path fill-rule="evenodd" clip-rule="evenodd" d="M37.019 6.54006C36.2674 5.86166 35.2421 5.52246 33.9433 5.52246C32.2749 5.52246 31.015 6.11979 30.1637 7.31446L31.7114 8.26699C32.2833 7.45775 33.06 7.05313 34.0416 7.05313C34.6674 7.04597 35.273 7.26953 35.7376 7.67926C36.201 8.05362 36.4675 8.61175 36.4634 9.19926V9.59179C35.7882 9.21846 34.9289 9.03179 33.8855 9.03179C32.6631 9.03322 31.6859 9.31339 30.9539 9.87233C30.2219 10.4313 29.8559 11.184 29.8559 12.1305C29.84 12.9923 30.2225 13.8152 30.8972 14.3705C31.5913 14.9678 32.4539 15.2665 33.4849 15.2665C34.6928 15.2665 35.6605 14.7438 36.3881 13.6985H36.4645V14.9678H38.1453V9.33046C38.1461 8.14859 37.7706 7.21846 37.019 6.54006ZM32.2528 13.2878C31.8847 13.0285 31.6676 12.6113 31.67 12.1678C31.67 11.6697 31.909 11.2547 32.3903 10.9134C32.8669 10.577 33.4621 10.4089 34.1759 10.4089C35.156 10.4089 35.92 10.6222 36.4679 11.0489C36.4679 11.7699 36.1768 12.3982 35.5948 12.9337C35.0705 13.4461 34.3597 13.7346 33.6182 13.7358C33.1238 13.7448 32.6414 13.5866 32.2528 13.2878Z" fill="#5F6368"/>
<path fill-rule="evenodd" clip-rule="evenodd" d="M22.7123 14.9671V9.55375V9.55269H25.6155C26.8124 9.5534 27.8183 9.17402 28.6333 8.41455C29.4568 7.69377 29.9173 6.65743 29.8939 5.57722C29.9102 4.50301 29.4506 3.47435 28.6333 2.75589C27.8255 1.99226 26.7391 1.57562 25.6155 1.59856H20.9551V14.9671H22.7123ZM22.7123 7.91109V3.24442V3.24335H25.6591C26.3159 3.22531 26.949 3.48362 27.3978 3.95269C27.8492 4.38167 28.104 4.97089 28.104 5.58629C28.104 6.20168 27.8492 6.79091 27.3978 7.21989C26.9435 7.67909 26.3124 7.93001 25.6591 7.91109H22.7123Z" fill="#5F6368"/>
</svg>
