<svg width="33" height="34" viewBox="0 0 33 34" fill="none" xmlns="http://www.w3.org/2000/svg">
<path d="M26.5407 7.83837C24.6408 6.96633 22.6344 6.34823 20.5732 6C20.3106 6.45237 20.0191 7.06562 19.8142 7.54688C17.6222 7.22589 15.3952 7.22589 13.2032 7.54688C12.9983 7.06562 12.6903 6.45237 12.4428 6C10.3797 6.34412 8.37188 6.96238 6.47257 7.83837C2.69544 13.4126 1.67382 18.8562 2.18532 24.2256C4.39852 25.8506 6.87088 27.0891 9.49757 27.8886C10.0876 27.0921 10.6101 26.2477 11.0596 25.3641C10.1974 25.0424 9.38207 24.6491 8.59282 24.1816C8.79769 24.0359 9.00119 23.875 9.19094 23.7141C13.9484 25.8894 19.1006 25.8894 23.7989 23.7141C24.0038 23.875 24.1936 24.0359 24.3971 24.1816C23.6092 24.6491 22.7924 25.0424 21.9317 25.3641C22.3807 26.2476 22.9027 27.0921 23.4923 27.8886C26.12 27.0915 28.5927 25.8528 30.8046 24.2256C31.4329 18.0106 29.8118 12.6096 26.5421 7.83837H26.5407ZM11.7141 20.9132C10.2841 20.9132 9.11669 19.6139 9.11669 18.0244C9.11669 16.4335 10.2552 15.1341 11.7154 15.1341C13.1592 15.1341 14.3417 16.4335 14.3114 18.0244C14.3114 19.6139 13.1592 20.9132 11.7141 20.9132ZM21.3033 20.9132C19.8733 20.9132 18.7046 19.6139 18.7046 18.0244C18.7046 16.4335 19.8431 15.1341 21.3033 15.1341C22.7471 15.1341 23.9296 16.4335 23.9007 18.0244C23.9007 19.6139 22.7622 20.9119 21.3019 20.9119L21.3033 20.9132Z" fill="#F1F1F1"/>
</svg>
