<svg width="34" height="34" viewBox="0 0 34 34" fill="none" xmlns="http://www.w3.org/2000/svg">
<path d="M18.4558 3.25133C19.4896 3.24748 20.5234 3.25756 21.5569 3.28158L21.8318 3.2912C22.1491 3.3022 22.4622 3.31595 22.8404 3.33245C24.3478 3.4012 25.3763 3.6322 26.2787 3.97183C27.2137 4.32108 28.0014 4.79408 28.789 5.55858C29.5092 6.24553 30.0666 7.0765 30.4224 7.9937C30.7724 8.86958 31.0103 9.8692 31.0812 11.3322C31.0982 11.698 31.1123 12.0032 31.1237 12.3112L31.1322 12.578C31.1574 13.5806 31.1682 14.5835 31.1648 15.5865L31.1662 16.6122V18.4135C31.1697 19.4168 31.1588 20.4202 31.1336 21.4233L31.1251 21.6901C31.1138 21.9981 31.0996 22.302 31.0826 22.6691C31.0118 24.1321 30.7709 25.1303 30.4224 26.0062C30.0678 26.9244 29.5102 27.756 28.789 28.4427C28.0806 29.1416 27.224 29.6826 26.2787 30.0281C25.3763 30.3677 24.3478 30.5987 22.8404 30.6675C22.4622 30.684 22.1491 30.6977 21.8318 30.7087L21.5569 30.717C20.5234 30.7414 19.4896 30.7519 18.4558 30.7486L17.399 30.75H15.5446C14.5108 30.7533 13.477 30.7428 12.4435 30.7183L12.1687 30.7101C11.8324 30.6982 11.4962 30.6845 11.16 30.6688C9.65268 30.6001 8.62418 30.3663 7.72035 30.0281C6.77498 29.6834 5.91869 29.1423 5.21143 28.4427C4.49041 27.7556 3.9325 26.9241 3.5766 26.0062C3.22668 25.1303 2.98868 24.1321 2.91785 22.6691C2.90207 22.3428 2.8879 22.0165 2.87535 21.6901L2.86827 21.4233C2.84215 20.4202 2.83034 19.4169 2.83285 18.4135V15.5865C2.82889 14.5835 2.83928 13.5806 2.86402 12.578L2.87393 12.3112C2.88527 12.0032 2.89943 11.698 2.91643 11.3322C2.98727 9.86783 3.22527 8.87095 3.57518 7.9937C3.93129 7.07605 4.4903 6.24531 5.21285 5.55995C5.91962 4.85973 6.77538 4.31774 7.72035 3.97183C8.62418 3.6322 9.65126 3.4012 11.16 3.33245L12.1687 3.2912L12.4435 3.28433C13.4765 3.25899 14.5098 3.24753 15.5432 3.24995L18.4558 3.25133ZM16.9995 10.1263C16.061 10.1134 15.1292 10.2817 14.2582 10.6214C13.3873 10.9611 12.5946 11.4654 11.9262 12.105C11.2578 12.7446 10.7271 13.5068 10.3648 14.3472C10.0026 15.1877 9.81601 16.0896 9.81601 17.0006C9.81601 17.9117 10.0026 18.8136 10.3648 19.654C10.7271 20.4945 11.2578 21.2566 11.9262 21.8963C12.5946 22.5359 13.3873 23.0402 14.2582 23.3799C15.1292 23.7195 16.061 23.8878 16.9995 23.875C18.8781 23.875 20.6798 23.1506 22.0082 21.8613C23.3366 20.572 24.0828 18.8233 24.0828 17C24.0828 15.1766 23.3366 13.4279 22.0082 12.1386C20.6798 10.8493 18.8781 10.1263 16.9995 10.1263ZM16.9995 12.8763C17.5641 12.8662 18.125 12.9654 18.6496 13.1681C19.1743 13.3708 19.652 13.6729 20.055 14.0568C20.4579 14.4407 20.778 14.8987 20.9966 15.404C21.2151 15.9094 21.3277 16.4519 21.3278 16.9999C21.3279 17.548 21.2155 18.0905 20.9971 18.5959C20.7787 19.1013 20.4588 19.5594 20.056 19.9435C19.6531 20.3275 19.1755 20.6298 18.651 20.8326C18.1264 21.0355 17.5655 21.1349 17.0009 21.125C15.8738 21.125 14.7928 20.6904 13.9957 19.9168C13.1987 19.1432 12.7509 18.094 12.7509 17C12.7509 15.9059 13.1987 14.8567 13.9957 14.0831C14.7928 13.3095 15.8738 12.875 17.0009 12.875L16.9995 12.8763ZM24.437 8.06383C23.98 8.08158 23.5478 8.27028 23.2309 8.59041C22.914 8.91054 22.737 9.33726 22.737 9.7812C22.737 10.2251 22.914 10.6519 23.2309 10.972C23.5478 11.2921 23.98 11.4808 24.437 11.4986C24.9067 11.4986 25.3571 11.3175 25.6892 10.9952C26.0213 10.6728 26.2078 10.2357 26.2078 9.77983C26.2078 9.32398 26.0213 8.88681 25.6892 8.56449C25.3571 8.24216 24.9067 8.06108 24.437 8.06108V8.06383Z" fill="#F1F1F1"/>
</svg>
