<svg width="36" height="36" viewBox="0 0 36 36" fill="none" xmlns="http://www.w3.org/2000/svg">
<path d="M33.0871 10.4175C32.9078 9.75152 32.5568 9.14433 32.0692 8.65666C31.5815 8.169 30.9743 7.81798 30.3083 7.63873C27.8558 6.97498 18.0008 6.97498 18.0008 6.97498C18.0008 6.97498 8.14585 6.97498 5.69335 7.63873C5.02739 7.81798 4.4202 8.169 3.93254 8.65666C3.44487 9.14433 3.09385 9.75152 2.9146 10.4175C2.45666 12.9187 2.23444 15.4573 2.25085 18C2.23444 20.5427 2.45666 23.0813 2.9146 25.5825C3.09385 26.2484 3.44487 26.8556 3.93254 27.3433C4.4202 27.8309 5.02739 28.182 5.69335 28.3612C8.14585 29.025 18.0008 29.025 18.0008 29.025C18.0008 29.025 27.8558 29.025 30.3083 28.3612C30.9743 28.182 31.5815 27.8309 32.0692 27.3433C32.5568 26.8556 32.9078 26.2484 33.0871 25.5825C33.545 23.0813 33.7673 20.5427 33.7508 18C33.7673 15.4573 33.545 12.9187 33.0871 10.4175ZM14.8508 22.725V13.275L23.0296 18L14.8508 22.725Z" fill="#F1F1F1"/>
</svg>
