<svg width="33" height="34" viewBox="0 0 33 34" fill="none" xmlns="http://www.w3.org/2000/svg">
<path d="M30.25 8.62217C29.2193 9.07231 28.1276 9.36747 27.0105 9.49804C28.1831 8.80949 29.0648 7.71756 29.491 6.42629C28.38 7.07299 27.1683 7.5285 25.9064 7.77379C25.375 7.2172 24.7358 6.7747 24.0278 6.47329C23.3198 6.17187 22.5578 6.01787 21.7882 6.02067C18.6725 6.02067 16.1466 8.50942 16.1466 11.5757C16.1466 12.0102 16.1961 12.435 16.2924 12.8407C14.0574 12.7344 11.8692 12.1634 9.86723 11.164C7.8653 10.1647 6.09367 8.75909 4.66537 7.03679C4.16464 7.88159 3.90145 8.84599 3.90363 9.82804C3.90458 10.7465 4.13439 11.6502 4.57227 12.4576C5.01016 13.2649 5.64232 13.9504 6.41163 14.4522C5.51717 14.4233 4.64203 14.1845 3.85688 13.755V13.8238C3.85688 16.516 5.8025 18.7614 8.38062 19.2729C7.89609 19.4015 7.39693 19.4666 6.89563 19.4668C6.53125 19.4668 6.17788 19.4324 5.83275 19.3637C6.20137 20.4746 6.90677 21.4431 7.851 22.1348C8.79523 22.8264 9.93141 23.2069 11.1017 23.2233C9.09434 24.7695 6.63 25.6049 4.09613 25.5979C3.63962 25.5979 3.19138 25.5704 2.75 25.5209C5.33672 27.1581 8.33607 28.0252 11.3974 28.0207C21.7745 28.0207 27.4478 19.5548 27.4478 12.2137L27.4285 11.4945C28.5352 10.7158 29.4912 9.74258 30.25 8.62217Z" fill="#F1F1F1"/>
</svg>
