<svg width="20" height="19" viewBox="0 0 20 19" fill="none" xmlns="http://www.w3.org/2000/svg">
<path fill-rule="evenodd" clip-rule="evenodd" d="M9.3527 3.78196C9.93135 3.20359 10.6567 2.79391 11.4508 2.59699C12.2449 2.40007 13.0776 2.42336 13.8595 2.66435C14.6413 2.90534 15.3426 3.35491 15.8881 3.96471C16.4335 4.57452 16.8023 5.32148 16.9549 6.12525C17.1076 6.92902 17.0382 7.75919 16.7542 8.52647C16.4703 9.29375 15.9825 9.9691 15.3434 10.4799C14.7044 10.9907 13.9381 11.3176 13.1271 11.4254C12.3161 11.5333 11.4911 11.418 10.7407 11.092C10.4769 10.9759 10.192 10.9153 9.9037 10.914H8.5407C7.8507 10.914 7.2907 11.474 7.2907 12.164V13.742H5.7137C5.0237 13.742 4.4637 14.302 4.4637 14.992V16.57H2.2207V15.156L7.5767 9.80096C8.1207 9.25696 8.2567 8.50496 8.1267 7.86996C7.97629 7.14033 8.00959 6.38475 8.22359 5.67118C8.43759 4.9576 8.82559 4.3084 9.3527 3.78196ZM17.1307 2.36796C16.1424 1.37944 14.8617 0.735878 13.4787 0.532748C12.0956 0.329618 10.684 0.577748 9.45314 1.24032C8.22229 1.9029 7.23783 2.94461 6.64582 4.21091C6.05381 5.47721 5.8858 6.90063 6.1667 8.26996C6.17604 8.30906 6.17395 8.35001 6.1607 8.38796L0.660703 13.888C0.521256 14.0272 0.410621 14.1926 0.335124 14.3747C0.259626 14.5567 0.220745 14.7519 0.220703 14.949V17.56C0.220703 18.118 0.672703 18.57 1.2307 18.57H5.2137C5.9037 18.57 6.4637 18.01 6.4637 17.32V15.742H8.0417C8.7317 15.742 9.2917 15.182 9.2917 14.492V12.914H9.9017C9.9037 12.914 9.9177 12.916 9.9437 12.927C11.3319 13.5288 12.8865 13.6277 14.3398 13.2065C15.793 12.7854 17.0539 11.8706 17.9052 10.6198C18.7565 9.36893 19.1449 7.86037 19.0036 6.35395C18.8622 4.84752 18.1999 3.43857 17.1307 2.36796ZM12.1807 7.31796C12.32 7.45729 12.4854 7.56782 12.6675 7.64323C12.8495 7.71863 13.0447 7.75744 13.2417 7.75744C13.4387 7.75744 13.6339 7.71863 13.8159 7.64323C13.998 7.56782 14.1634 7.45729 14.3027 7.31796C14.442 7.17863 14.5526 7.01322 14.628 6.83117C14.7034 6.64912 14.7422 6.45401 14.7422 6.25696C14.7422 6.05992 14.7034 5.8648 14.628 5.68275C14.5526 5.50071 14.442 5.33529 14.3027 5.19596C14.0214 4.91457 13.6399 4.75643 13.2421 4.75634C12.8442 4.75624 12.4626 4.9142 12.1812 5.19546C11.8998 5.47672 11.7417 5.85825 11.7416 6.25611C11.7415 6.65397 11.8994 7.03657 12.1807 7.31796Z" fill="#F1F1F1"/>
</svg>
