<svg width="283" height="151" viewBox="0 0 283 151" fill="none" xmlns="http://www.w3.org/2000/svg">
<path d="M69.373 69.25L131.873 69.25L131.873 81.75L69.373 81.75L69.373 69.25ZM19.373 75.5C19.373 67.7917 20.8584 60.525 23.8293 53.7C26.8001 46.875 30.8355 40.9125 35.9355 35.8125C41.0397 30.7083 47.0043 26.6708 53.8293 23.7C60.6543 20.7292 67.9189 19.2458 75.623 19.25C83.9564 19.25 91.821 20.9688 99.2168 24.4063C106.613 27.8438 113.019 32.6875 118.436 38.9375L109.373 48C105.415 42.7917 100.467 38.7813 94.5293 35.9688C88.5918 33.1563 82.2897 31.75 75.623 31.75C63.5397 31.75 53.2272 36.0208 44.6855 44.5625C36.1439 53.1042 31.873 63.4167 31.873 75.5C31.873 87.6875 36.1439 98.0271 44.6855 106.519C53.2272 115.01 63.5397 119.254 75.623 119.25C82.2897 119.25 88.5918 117.869 94.5293 115.106C100.467 112.344 105.415 108.308 109.373 103L118.436 112.063C113.019 118.313 106.613 123.156 99.2168 126.594C91.8209 130.031 83.9564 131.75 75.623 131.75C67.9147 131.75 60.648 130.265 53.823 127.294C46.998 124.323 41.0355 120.315 35.9355 115.269C30.8314 110.215 26.7939 104.277 23.823 97.4562C20.8522 90.6354 19.3689 83.3167 19.373 75.5Z" fill="#F1F1F1"/>
<path d="M102.383 89.26L122.783 46.18H122.963L143.363 89.26H135.083L122.963 64.36H122.783L110.663 89.26H102.383ZM147.037 89.44L150.517 46.24L170.917 68.26H171.037L191.437 46.24L194.917 89.44H186.637L184.537 64L171.037 79C171.037 79.08 171.017 79.16 170.977 79.24C170.937 79.32 170.917 79.32 170.917 79.24L157.537 64.36L155.437 89.44H147.037ZM201.062 89.5V64.42H228.362V70.72H209.162V82.9H231.842L229.742 88L229.562 88.3L229.142 89.5H201.062ZM201.062 53.2V46.42H231.842L229.142 53.2H201.062Z" fill="#F1F1F1"/>
<path d="M246.483 67.9C248.043 67.9 249.353 67.92 250.413 67.96C251.473 68 252.353 68.12 253.053 68.32C253.753 68.52 254.293 68.84 254.673 69.28C255.053 69.7 255.333 70.31 255.513 71.11C255.693 71.89 255.793 72.89 255.813 74.11C255.853 75.33 255.873 76.82 255.873 78.58C255.873 80.4 255.853 81.93 255.813 83.17C255.773 84.41 255.663 85.44 255.483 86.26C255.303 87.06 255.023 87.68 254.643 88.12C254.263 88.54 253.723 88.86 253.023 89.08C252.323 89.28 251.443 89.4 250.383 89.44C249.323 89.46 248.023 89.47 246.483 89.47C244.943 89.47 243.633 89.46 242.553 89.44C241.493 89.4 240.613 89.28 239.913 89.08C239.233 88.86 238.703 88.54 238.323 88.12C237.963 87.68 237.693 87.06 237.513 86.26C237.353 85.44 237.253 84.41 237.213 83.17C237.193 81.93 237.183 80.4 237.183 78.58C237.183 76.82 237.193 75.33 237.213 74.11C237.253 72.89 237.353 71.89 237.513 71.11C237.693 70.31 237.963 69.7 238.323 69.28C238.703 68.84 239.233 68.52 239.913 68.32C240.613 68.12 241.493 68 242.553 67.96C243.633 67.92 244.943 67.9 246.483 67.9ZM246.423 85.9H246.693C247.573 85.9 248.313 85.89 248.913 85.87C249.513 85.83 250.003 85.74 250.383 85.6C250.763 85.46 251.053 85.24 251.253 84.94C251.473 84.64 251.623 84.22 251.703 83.68C251.803 83.12 251.853 82.42 251.853 81.58C251.873 80.72 251.883 79.67 251.883 78.43C251.883 77.21 251.873 76.19 251.853 75.37C251.853 74.55 251.803 73.87 251.703 73.33C251.603 72.79 251.453 72.38 251.253 72.1C251.053 71.8 250.753 71.58 250.353 71.44C249.953 71.3 249.443 71.22 248.823 71.2C248.223 71.18 247.473 71.17 246.573 71.17C245.653 71.17 244.883 71.18 244.263 71.2C243.643 71.22 243.123 71.3 242.703 71.44C242.303 71.58 241.993 71.8 241.773 72.1C241.553 72.4 241.393 72.83 241.293 73.39C241.193 73.93 241.133 74.62 241.113 75.46C241.093 76.3 241.083 77.34 241.083 78.58C241.083 80.4 241.103 81.81 241.143 82.81C241.203 83.79 241.393 84.51 241.713 84.97C242.033 85.43 242.533 85.7 243.213 85.78C243.913 85.86 244.903 85.9 246.183 85.9H246.423ZM260.481 89.56V68.05C260.481 68.03 260.481 68.01 260.481 67.99C260.501 67.99 260.511 67.99 260.511 67.99C260.531 67.97 260.551 67.96 260.571 67.96L276.771 81.67C276.791 81.67 276.801 81.67 276.801 81.67C276.821 81.65 276.831 81.63 276.831 81.61V67.96H280.581V89.47C280.581 89.49 280.581 89.5 280.581 89.5C280.581 89.56 280.561 89.55 280.521 89.47L264.231 76.27C264.211 76.27 264.201 76.27 264.201 76.27C264.201 76.29 264.191 76.3 264.171 76.3C264.171 76.3 264.171 76.32 264.171 76.36V89.56H260.481Z" fill="#F1F1F1"/>
</svg>
