<svg width="22" height="21" viewBox="0 0 22 21" fill="none" xmlns="http://www.w3.org/2000/svg">
<path d="M9.80393 0C14.9397 0 19.1079 4.16816 19.1079 9.30393C19.1079 14.4397 14.9397 18.6079 9.80393 18.6079C4.66816 18.6079 0.5 14.4397 0.5 9.30393C0.5 4.16816 4.66816 0 9.80393 0ZM9.80393 16.5403C13.8015 16.5403 17.0403 13.3015 17.0403 9.30393C17.0403 5.30634 13.8015 2.06754 9.80393 2.06754C5.80634 2.06754 2.56754 5.30634 2.56754 9.30393C2.56754 13.3015 5.80634 16.5403 9.80393 16.5403ZM18.5755 16.6137L21.5 19.5372L20.0372 21L17.1137 18.0755L18.5755 16.6137Z" fill="#F1F1F1" fill-opacity="0.7"/>
</svg>
