<svg width="22" height="21" viewBox="0 0 22 21" fill="none" xmlns="http://www.w3.org/2000/svg">
<path d="M0.5 0.9C0.5 0.661305 0.594828 0.432387 0.763622 0.263604C0.932417 0.094821 1.16135 0 1.40006 0H2.06971C3.20979 0 3.89384 0.7668 4.28386 1.4796C4.54428 1.9548 4.7327 2.5056 4.88031 3.0048C4.92023 3.00165 4.96026 3.00005 5.00031 3H19.999C20.995 3 21.7151 3.9528 21.4415 4.9116L19.2477 12.6024C19.051 13.2922 18.6349 13.8992 18.0624 14.3314C17.4898 14.7636 16.7921 14.9974 16.0747 14.9976H8.93659C8.21353 14.9976 7.51047 14.7602 6.93548 14.3218C6.36049 13.8835 5.94538 13.2684 5.75397 12.5712L4.8419 9.2448L3.3298 4.1472L3.3286 4.1376C3.14138 3.4572 2.96617 2.82 2.70455 2.3448C2.45374 1.8828 2.25212 1.8 2.07091 1.8H1.40006C1.16135 1.8 0.932417 1.70518 0.763622 1.5364C0.594828 1.36761 0.5 1.13869 0.5 0.9ZM6.58803 8.808L7.48929 12.0948C7.6693 12.7452 8.26094 13.1976 8.93659 13.1976H16.0747C16.4008 13.1976 16.7179 13.0914 16.9782 12.895C17.2385 12.6986 17.4277 12.4227 17.5172 12.1092L19.6017 4.8H5.40234L6.57122 8.7444L6.58803 8.808ZM10.7007 18.6C10.7007 19.2365 10.4478 19.847 9.99772 20.2971C9.5476 20.7471 8.93711 21 8.30055 21C7.66398 21 7.05349 20.7471 6.60337 20.2971C6.15325 19.847 5.90038 19.2365 5.90038 18.6C5.90038 17.9635 6.15325 17.353 6.60337 16.9029C7.05349 16.4529 7.66398 16.2 8.30055 16.2C8.93711 16.2 9.5476 16.4529 9.99772 16.9029C10.4478 17.353 10.7007 17.9635 10.7007 18.6ZM8.90059 18.6C8.90059 18.4409 8.83737 18.2883 8.72484 18.1757C8.61231 18.0632 8.45969 18 8.30055 18C8.1414 18 7.98878 18.0632 7.87625 18.1757C7.76372 18.2883 7.7005 18.4409 7.7005 18.6C7.7005 18.7591 7.76372 18.9117 7.87625 19.0243C7.98878 19.1368 8.1414 19.2 8.30055 19.2C8.45969 19.2 8.61231 19.1368 8.72484 19.0243C8.83737 18.9117 8.90059 18.7591 8.90059 18.6ZM19.1013 18.6C19.1013 19.2365 18.8484 19.847 18.3983 20.2971C17.9482 20.7471 17.3377 21 16.7011 21C16.0646 21 15.4541 20.7471 15.004 20.2971C14.5538 19.847 14.301 19.2365 14.301 18.6C14.301 17.9635 14.5538 17.353 15.004 16.9029C15.4541 16.4529 16.0646 16.2 16.7011 16.2C17.3377 16.2 17.9482 16.4529 18.3983 16.9029C18.8484 17.353 19.1013 17.9635 19.1013 18.6ZM17.3012 18.6C17.3012 18.4409 17.238 18.2883 17.1254 18.1757C17.0129 18.0632 16.8603 18 16.7011 18C16.542 18 16.3894 18.0632 16.2768 18.1757C16.1643 18.2883 16.1011 18.4409 16.1011 18.6C16.1011 18.7591 16.1643 18.9117 16.2768 19.0243C16.3894 19.1368 16.542 19.2 16.7011 19.2C16.8603 19.2 17.0129 19.1368 17.1254 19.0243C17.238 18.9117 17.3012 18.7591 17.3012 18.6Z" fill="#F1F1F1" fill-opacity="0.7"/>
</svg>
