<svg width="23" height="23" viewBox="0 0 23 23" fill="none" xmlns="http://www.w3.org/2000/svg">
<path d="M21.5 20.2302V9.43651C21.5 9.23937 21.4548 9.04494 21.368 8.86862C21.2812 8.69229 21.1552 8.53892 21 8.42063L12.25 1.75397C12.0336 1.58911 11.7705 1.5 11.5 1.5C11.2295 1.5 10.9664 1.58911 10.75 1.75397L2 8.42063C1.84476 8.53892 1.71875 8.69229 1.63197 8.86862C1.54518 9.04494 1.5 9.23937 1.5 9.43651V20.2302C1.5 20.5669 1.6317 20.8899 1.86612 21.1281C2.10054 21.3662 2.41848 21.5 2.75 21.5H7.75C8.08152 21.5 8.39946 21.3662 8.63388 21.1281C8.8683 20.8899 9 20.5669 9 20.2302V16.4206C9 16.0839 9.1317 15.7609 9.36612 15.5227C9.60054 15.2846 9.91848 15.1508 10.25 15.1508H12.75C13.0815 15.1508 13.3995 15.2846 13.6339 15.5227C13.8683 15.7609 14 16.0839 14 16.4206V20.2302C14 20.5669 14.1317 20.8899 14.3661 21.1281C14.6005 21.3662 14.9185 21.5 15.25 21.5H20.25C20.5815 21.5 20.8995 21.3662 21.1339 21.1281C21.3683 20.8899 21.5 20.5669 21.5 20.2302Z" stroke="#F1F1F1" stroke-opacity="0.7" stroke-width="2" stroke-linecap="round" stroke-linejoin="round"/>
</svg>
