<svg width="22" height="21" viewBox="0 0 22 21" fill="none" xmlns="http://www.w3.org/2000/svg">
<path d="M10.9995 9.80007C12.1178 9.80007 13.2109 9.51269 14.1406 8.97426C15.0704 8.43584 15.7951 7.67056 16.223 6.7752C16.6509 5.87983 16.7629 4.8946 16.5447 3.94409C16.3266 2.99357 15.7881 2.12047 14.9974 1.43519C14.2067 0.749907 13.1993 0.283224 12.1025 0.094155C11.0058 -0.0949139 9.86901 0.0021231 8.83591 0.372995C7.80281 0.743867 6.9198 1.37192 6.29855 2.17772C5.67729 2.98353 5.3457 3.9309 5.3457 4.90003C5.3457 6.1996 5.94137 7.44595 7.00167 8.36488C8.06197 9.28381 9.50005 9.80007 10.9995 9.80007ZM10.9995 1.40001C11.7983 1.40001 12.5791 1.60528 13.2432 1.98987C13.9073 2.37446 14.4249 2.92109 14.7306 3.56063C15.0362 4.20018 15.1162 4.90392 14.9604 5.58286C14.8046 6.26179 14.4199 6.88544 13.8552 7.37492C13.2904 7.86441 12.5708 8.19776 11.7874 8.33281C11.004 8.46786 10.192 8.39854 9.45409 8.13363C8.71616 7.86873 8.08544 7.42012 7.64169 6.84454C7.19794 6.26897 6.96108 5.59227 6.96108 4.90003C6.96108 3.97177 7.38656 3.08153 8.14392 2.42514C8.90128 1.76876 9.92847 1.40001 10.9995 1.40001Z" fill="#F1F1F1" fill-opacity="0.7"/>
<path d="M21.0719 14.9586C19.7766 13.7721 18.2157 12.8271 16.4846 12.1812C14.7536 11.5353 12.8887 11.2021 11.004 11.2021C9.11934 11.2021 7.25447 11.5353 5.5234 12.1812C3.79233 12.8271 2.23144 13.7721 0.936155 14.9586C0.655331 15.2186 0.499364 15.5615 0.500002 15.9176V19.5997C0.500002 19.971 0.670193 20.3271 0.973136 20.5896C1.27608 20.8522 1.68696 20.9997 2.11538 20.9997H19.8846C20.313 20.9997 20.7239 20.8522 21.0268 20.5896C21.3298 20.3271 21.5 19.971 21.5 19.5997V15.9176C21.5028 15.5625 21.3498 15.2197 21.0719 14.9586ZM19.8846 19.5997H2.11538V15.9106C3.26007 14.866 4.63804 14.0342 6.16543 13.4657C7.69283 12.8973 9.33772 12.6042 11 12.6042C12.6622 12.6042 14.3071 12.8973 15.8345 13.4657C17.3619 14.0342 18.7399 14.866 19.8846 15.9106V19.5997Z" fill="#F1F1F1" fill-opacity="0.7"/>
</svg>
