<svg width="21" height="20" viewBox="0 0 21 20" fill="none" xmlns="http://www.w3.org/2000/svg">
<path d="M17.8717 16.8547L13.5996 11.1734V18.6881L10.889 20V8.63227L13.7791 7.49734L18.1607 13.3461V5.45422L20.5 4.58984V15.7917L17.8717 16.8546V16.8547ZM5.32461 16.2982L3.7918 13.4354V17.0433L5.32461 16.2982ZM10.0758 20V8.63227L7.25656 7.49734V13.1611L3.16398 5.32176L0.5 4.27801V15.8974L3.15254 17.0434V10.7102L7.2457 18.7893L10.0758 20ZM17.5111 17.1811L14.1086 12.6961V14.5657L15.3886 16.3165L17.5111 17.1811ZM10.5192 4.94488L13.4327 6.07395L14.0993 4.94488V1.4975L11.4017 2.52277L10.5192 4.13352V4.94488ZM8.99723 5.54246L10.6069 2.51676L8.14492 1.47613L6.96195 3.66496L8.04594 5.93578L8.99723 5.54246ZM10.5192 7.92418L13.4167 6.80207L10.5192 5.60027L7.62176 6.88176L10.5192 7.92418ZM3.23398 2.56668L0.5 3.66496L3.58687 4.73781L6.13008 3.66496L3.23398 2.56668ZM13.6825 1.02695L11.0983 0L8.51418 1.01437L11.0984 2.04133L13.6825 1.02695ZM15.1624 3.92309L17.8448 4.90988L20.5 3.92305L18.038 2.93621L15.1624 3.92309ZM7.53328 6.11309L6.6009 4.25613L3.98754 5.28992L6.67293 10.4502V6.51133L7.53328 6.11309ZM15.1624 4.52812L13.912 6.5025L17.5671 11.703V5.45422L15.1625 4.52812H15.1624Z" fill="#F1F1F1"/>
</svg>
