<svg width="69" height="49" viewBox="0 0 69 49" fill="none" xmlns="http://www.w3.org/2000/svg">
<rect x="0.5" y="1" width="68" height="47" rx="3.5" fill="white" stroke="#F3F3F3"/>
<path d="M40.8182 35.2718H28.5039V13.1146H40.8182V35.2718Z" fill="#FF5F00"/>
<path d="M29.2919 24.1914C29.2919 19.6967 31.3939 15.693 34.6672 13.1128C32.2735 11.2261 29.2526 10.0999 25.9694 10.0999C18.197 10.0999 11.8965 16.4088 11.8965 24.1914C11.8965 31.974 18.197 38.2828 25.9694 38.2828C29.2526 38.2828 32.2735 37.1567 34.6672 35.27C31.3939 32.6898 29.2919 28.6861 29.2919 24.1914Z" fill="#EB001B"/>
<path d="M57.4259 24.1914C57.4259 31.974 51.1254 38.2828 43.3529 38.2828C40.0698 38.2828 37.0489 37.1567 34.6543 35.27C37.9285 32.6898 40.0304 28.6861 40.0304 24.1914C40.0304 19.6967 37.9285 15.693 34.6543 13.1128C37.0489 11.2261 40.0698 10.0999 43.3529 10.0999C51.1254 10.0999 57.4259 16.4088 57.4259 24.1914Z" fill="#F79E1B"/>
</svg>
