<svg width="69" height="49" viewBox="0 0 69 49" fill="none" xmlns="http://www.w3.org/2000/svg">
<rect x="0.5" y="1" width="68" height="47" rx="3.5" fill="white" stroke="#F3F3F3"/>
<path fill-rule="evenodd" clip-rule="evenodd" d="M31.4528 24.8074L31.7532 22.8773L31.084 22.8615H27.8887L30.1093 8.61804C30.1163 8.57491 30.1386 8.53487 30.1713 8.50639C30.2041 8.47791 30.2459 8.46228 30.2897 8.46228H35.6776C37.4664 8.46228 38.7008 8.83874 39.3452 9.58189C39.6474 9.93052 39.8398 10.2949 39.9329 10.6958C40.0306 11.1165 40.0322 11.6191 39.937 12.2322L39.9301 12.2768V12.6697L40.2322 12.8429C40.4866 12.9795 40.6888 13.1357 40.8439 13.3146C41.1023 13.6128 41.2695 13.9917 41.3401 14.4407C41.4132 14.9026 41.389 15.4524 41.2695 16.0748C41.1316 16.7906 40.9088 17.4141 40.6077 17.9242C40.331 18.3943 39.9783 18.7842 39.5595 19.0863C39.1597 19.3734 38.6847 19.5913 38.1477 19.7308C37.6272 19.8679 37.0338 19.937 36.383 19.937H35.9637C35.6639 19.937 35.3727 20.0462 35.1441 20.242C34.9148 20.4419 34.7632 20.715 34.7167 21.0137L34.685 21.1875L34.1542 24.5896L34.1303 24.7145C34.1238 24.754 34.1129 24.7737 34.0968 24.7871C34.0825 24.7993 34.0619 24.8074 34.0418 24.8074H31.4528Z" fill="#28356A"/>
<path fill-rule="evenodd" clip-rule="evenodd" d="M40.5182 12.3223C40.5023 12.4263 40.4838 12.5325 40.4632 12.6418C39.7527 16.3321 37.3217 17.607 34.2171 17.607H32.6363C32.2566 17.607 31.9366 17.8858 31.8775 18.2647L30.839 24.9288C30.8005 25.1777 30.99 25.4018 31.2381 25.4018H34.0419C34.3738 25.4018 34.6559 25.1578 34.7082 24.8266L34.7357 24.6826L35.2636 21.2938L35.2975 21.1079C35.3492 20.7756 35.6319 20.5314 35.9638 20.5314H36.3831C39.0995 20.5314 41.226 19.4159 41.8476 16.1874C42.1071 14.8388 41.9727 13.7127 41.2857 12.9207C41.0778 12.682 40.8199 12.4837 40.5182 12.3223Z" fill="#298FC2"/>
<path fill-rule="evenodd" clip-rule="evenodd" d="M39.7745 12.0224C39.6659 11.9903 39.5539 11.9613 39.439 11.9351C39.3235 11.9096 39.2052 11.887 39.0834 11.8671C38.6572 11.7974 38.1901 11.7644 37.6899 11.7644H33.4669C33.3628 11.7644 33.264 11.7882 33.1757 11.8311C32.9809 11.9259 32.8362 12.1124 32.8011 12.3407L31.9027 18.0968L31.877 18.2646C31.936 17.8857 32.256 17.6069 32.6357 17.6069H34.2165C37.3212 17.6069 39.7521 16.3314 40.4626 12.6417C40.4839 12.5325 40.5017 12.4262 40.5177 12.3222C40.3379 12.2257 40.1433 12.1431 39.9336 12.0728C39.8818 12.0554 39.8284 12.0387 39.7745 12.0224Z" fill="#22284F"/>
<path fill-rule="evenodd" clip-rule="evenodd" d="M32.8016 12.3407C32.8367 12.1124 32.9814 11.9259 33.1762 11.8318C33.2652 11.7887 33.3633 11.7649 33.4674 11.7649H37.6904C38.1907 11.7649 38.6577 11.7981 39.084 11.8678C39.2057 11.8875 39.324 11.9103 39.4395 11.9358C39.5544 11.9618 39.6664 11.991 39.775 12.0229C39.8289 12.0392 39.8823 12.0561 39.9346 12.0728C40.1442 12.1432 40.3391 12.2263 40.5188 12.3222C40.7302 10.9584 40.517 10.0299 39.7882 9.18911C38.9845 8.26334 37.5342 7.86719 35.6783 7.86719H30.2902C29.9112 7.86719 29.5878 8.14599 29.5292 8.52554L27.285 22.9154C27.2408 23.2001 27.4578 23.4569 27.7417 23.4569H31.068L32.8016 12.3407Z" fill="#28356A"/>
<path fill-rule="evenodd" clip-rule="evenodd" d="M15.5784 28.725H11.65C11.3812 28.725 11.1525 28.9226 11.1105 29.1911L9.52169 39.3811C9.49015 39.5822 9.64413 39.7634 9.84573 39.7634H11.7211C11.99 39.7634 12.2186 39.5659 12.2606 39.2969L12.6891 36.5484C12.7304 36.2794 12.9595 36.0818 13.2279 36.0818H14.4715C17.0591 36.0818 18.5526 34.815 18.9427 32.305C19.1184 31.2067 18.9501 30.3439 18.4417 29.7396C17.8834 29.076 16.8931 28.725 15.5784 28.725ZM16.0314 32.4468C15.8166 33.8727 14.7396 33.8727 13.6983 33.8727H13.1054L13.5213 31.2096C13.5461 31.0487 13.6838 30.9302 13.8447 30.9302H14.1164C14.8258 30.9302 15.495 30.9302 15.8407 31.3392C16.047 31.5832 16.1101 31.9458 16.0314 32.4468Z" fill="#28356A"/>
<path fill-rule="evenodd" clip-rule="evenodd" d="M27.421 32.3238H25.5398C25.3796 32.3238 25.2411 32.4423 25.2164 32.6033L25.1331 33.1355L25.0017 32.9426C24.5944 32.3446 23.6862 32.1448 22.7799 32.1448C20.7009 32.1448 18.9255 33.7375 18.5797 35.9717C18.4 37.0861 18.6555 38.1518 19.2805 38.895C19.8538 39.5783 20.6741 39.8631 21.6499 39.8631C23.325 39.8631 24.2537 38.7736 24.2537 38.7736L24.1698 39.3024C24.1383 39.5045 24.2923 39.6858 24.4927 39.6858H26.1871C26.4566 39.6858 26.6841 39.4882 26.7266 39.2192L27.7433 32.7061C27.7755 32.5056 27.622 32.3238 27.421 32.3238ZM24.7987 36.0275C24.6173 37.1146 23.7644 37.8444 22.6764 37.8444C22.1301 37.8444 21.6936 37.6671 21.4132 37.3314C21.1352 36.9979 21.0296 36.5231 21.118 35.9943C21.2875 34.9165 22.1548 34.1628 23.2262 34.1628C23.7603 34.1628 24.1946 34.3425 24.4807 34.681C24.7672 35.0233 24.881 35.501 24.7987 36.0275Z" fill="#28356A"/>
<path fill-rule="evenodd" clip-rule="evenodd" d="M37.296 32.4868H35.4055C35.2252 32.4868 35.0557 32.5775 34.9536 32.7292L32.3463 36.614L31.2411 32.8807C31.1716 32.6471 30.9586 32.4868 30.7172 32.4868H28.8597C28.6338 32.4868 28.4771 32.71 28.5488 32.925L30.6311 39.1062L28.6735 41.9017C28.5195 42.1219 28.6746 42.4246 28.9406 42.4246H30.8287C31.0079 42.4246 31.1756 42.3363 31.2773 42.1877L37.5647 33.0068C37.7153 32.7873 37.5607 32.4868 37.296 32.4868Z" fill="#28356A"/>
<path fill-rule="evenodd" clip-rule="evenodd" d="M43.5978 28.725H39.6689C39.4007 28.725 39.1721 28.9226 39.1301 29.1911L37.5412 39.3811C37.5097 39.5822 37.6637 39.7634 37.8641 39.7634H39.8803C40.0674 39.7634 40.2277 39.6252 40.257 39.4369L40.708 36.5484C40.7493 36.2794 40.9786 36.0818 41.2468 36.0818H42.4899C45.078 36.0818 46.571 34.815 46.9616 32.305C47.138 31.2067 46.9685 30.3439 46.4601 29.7396C45.9023 29.076 44.9126 28.725 43.5978 28.725ZM44.0511 32.4468C43.8368 33.8727 42.7597 33.8727 41.7178 33.8727H41.1257L41.5421 31.2096C41.5667 31.0487 41.7035 30.9302 41.8648 30.9302H42.1366C42.8453 30.9302 43.5151 30.9302 43.8609 31.3392C44.0672 31.5832 44.1298 31.9458 44.0511 32.4468Z" fill="#298FC2"/>
<path fill-rule="evenodd" clip-rule="evenodd" d="M55.438 32.3238H53.558C53.3966 32.3238 53.2594 32.4423 53.2352 32.6033L53.1519 33.1355L53.0198 32.9426C52.6126 32.3446 51.7049 32.1448 50.7985 32.1448C48.7197 32.1448 46.9449 33.7375 46.5991 35.9717C46.4199 37.0861 46.6742 38.1518 47.2992 38.895C47.8737 39.5783 48.6927 39.8631 49.6687 39.8631C51.3436 39.8631 52.2724 38.7736 52.2724 38.7736L52.1886 39.3024C52.1571 39.5045 52.3109 39.6858 52.5126 39.6858H54.2065C54.4748 39.6858 54.7034 39.4882 54.7454 39.2192L55.7626 32.7061C55.7936 32.5056 55.6396 32.3238 55.438 32.3238ZM52.8158 36.0275C52.6355 37.1146 51.7813 37.8444 50.6933 37.8444C50.1482 37.8444 49.7105 37.6671 49.4301 37.3314C49.1522 36.9979 49.0477 36.5231 49.1349 35.9943C49.3056 34.9165 50.1717 34.1628 51.2431 34.1628C51.7772 34.1628 52.2115 34.3425 52.4976 34.681C52.7852 35.0233 52.899 35.501 52.8158 36.0275Z" fill="#298FC2"/>
<path fill-rule="evenodd" clip-rule="evenodd" d="M57.4993 29.0051L55.8869 39.3815C55.8554 39.5827 56.0092 39.7639 56.2097 39.7639H57.8307C58.1002 39.7639 58.3287 39.5664 58.37 39.2974L59.96 29.1079C59.9917 28.9068 59.8377 28.725 59.6372 28.725H57.8222C57.6619 28.7255 57.524 28.8441 57.4993 29.0051Z" fill="#298FC2"/>
</svg>
