<svg width="69" height="49" viewBox="0 0 69 49" fill="none" xmlns="http://www.w3.org/2000/svg">
<rect x="0.5" y="1" width="68" height="47" rx="3.5" fill="white" stroke="#F3F3F3"/>
<g clip-path="url(#clip0_54_1484)">
<path d="M64.8783 21.31L64.8927 21.2941H62.6215L61.1873 26.3029H61.1112L59.4646 21.2941H56.7656L60.013 29.5602L58.6563 32.0798V32.1405H60.7753L64.8783 21.31Z" fill="black"/>
<path d="M39.7 21.2941H37.291V29.5298H39.7V21.2941Z" fill="black"/>
<path d="M56.292 27.47V24.0291C56.292 22.1546 55.1938 21.1248 53.2571 21.1248C52.0211 21.1248 51.1683 21.3403 49.6121 21.8161L50.0385 23.7066C51.4569 23.0615 52.0814 22.7852 52.7374 22.7852C53.5299 22.7852 53.8816 23.3536 53.8816 24.2301V24.2909C51.1209 24.813 50.2667 25.1052 49.7341 25.6433C49.3379 26.0425 49.1699 26.6109 49.1699 27.2719C49.1699 28.8542 50.3902 29.6989 51.533 29.6989C52.3872 29.6989 53.0734 29.3764 54.0037 28.6691L54.1716 29.5297H56.5806L56.292 27.47ZM53.8831 27.5322C53.2428 27.8852 52.8767 28.024 52.4503 28.024C51.8703 28.024 51.5042 27.6393 51.5042 27.026C51.5042 26.796 51.5502 26.5646 51.7325 26.3809C52.0225 26.0887 52.5867 25.8732 53.8831 25.5666V27.5322Z" fill="black"/>
<path d="M45.6952 21.1248C44.8108 21.1248 44.1246 21.4632 43.3465 22.1083V21.294H40.9375V32.1404H43.3465V29.4516C43.8044 29.5745 44.2308 29.6367 44.7491 29.6367C46.8996 29.6367 48.8363 28.0385 48.8363 25.1963C48.8363 22.6464 47.4337 21.1248 45.6952 21.1248ZM44.1691 28.1151C43.8949 28.1151 43.635 28.0848 43.345 27.9922V23.5373C43.8489 23.1844 44.2595 23.0152 44.7778 23.0152C45.6779 23.0152 46.3943 23.7369 46.3943 25.2744C46.3957 27.2401 45.3434 28.1151 44.1691 28.1151Z" fill="black"/>
<path d="M16.8715 17.0518H6.54224C5.19706 17.0518 4.10742 18.1597 4.10742 19.5251V30.02C4.10742 31.3854 5.19706 32.4934 6.54224 32.4934H16.8715C18.2167 32.4934 19.3049 31.3854 19.3049 30.02V19.5251C19.3064 18.1582 18.2167 17.0518 16.8715 17.0518Z" fill="#44A0E3"/>
<path d="M16.6199 26.7483C16.0127 26.5415 15.1958 26.2247 14.287 25.8906C14.8326 24.9259 15.269 23.8281 15.5561 22.6348H12.56V21.5384H16.2294V20.9266H12.56V19.0984H11.0626C10.7999 19.0984 10.7999 19.3616 10.7999 19.3616V20.9252H7.08883V21.537H10.7999V22.6334H7.73486V23.2452H13.6783C13.4616 24.006 13.1687 24.7219 12.8227 25.3714C10.8947 24.7248 8.83598 24.2012 7.54392 24.5238C6.71701 24.7306 6.18439 25.0994 5.87142 25.4871C4.4358 27.2618 5.46514 29.9578 8.49718 29.9578C10.2903 29.9578 12.0173 28.9425 13.3553 27.269C15.3523 28.2439 19.3045 29.9188 19.3045 29.9188V27.5323C19.306 27.5323 18.8093 27.4918 16.6199 26.7483ZM8.21436 28.9266C5.84989 28.9266 5.15074 27.0347 6.31934 25.9991C6.70983 25.6491 7.4219 25.4784 7.8009 25.4408C9.20494 25.3005 10.5056 25.8443 12.0403 26.6051C10.9621 28.0342 9.58825 28.9266 8.21436 28.9266Z" fill="white"/>
<path d="M29.0105 18.6978H25.7775L22.1641 29.5297H24.3907L25.0008 27.4093H28.8282L29.4082 29.5297H32.2594L29.0105 18.6978ZM25.5033 25.6418L26.9361 20.6489H26.9964L28.353 25.6418H25.5033Z" fill="black"/>
<path d="M35.6433 18.313H33.2344V29.5283H35.6433V18.313Z" fill="black"/>
<path d="M37.1074 19.3124C37.1074 20.1108 37.6874 20.6489 38.4957 20.6489C39.3039 20.6489 39.8839 20.1108 39.8839 19.3124C39.8839 18.5285 39.3039 17.976 38.4957 17.976C37.6874 17.976 37.1074 18.5285 37.1074 19.3124Z" fill="#44A0E3"/>
</g>
<defs>
<clipPath id="clip0_54_1484">
<rect width="60.7857" height="15.4416" fill="white" transform="translate(4.10742 17.0518)"/>
</clipPath>
</defs>
</svg>
