<svg width="69" height="49" viewBox="0 0 69 49" fill="none" xmlns="http://www.w3.org/2000/svg">
<rect x="0.5" y="1" width="68" height="47" rx="3.5" fill="#F4B6C7" stroke="#F3F3F3"/>
<path fill-rule="evenodd" clip-rule="evenodd" d="M8.81985 31.4555H5.94922V18.5H8.81985V31.4555ZM15.9897 18.5H13.1804C13.1804 20.8842 12.1218 23.0724 10.2761 24.5041L9.16317 25.3671L13.4755 31.4561H17.0211L13.0532 25.8533C14.9341 23.9139 15.9897 21.3048 15.9897 18.5ZM20.5689 31.4512H17.8579V18.5017H20.5689V31.4512ZM28.7629 22.4943V23.0673C28.0311 22.5505 27.148 22.2467 26.1954 22.2467C23.6744 22.2467 21.6307 24.3629 21.6307 26.9734C21.6307 29.5838 23.6744 31.7 26.1954 31.7C27.148 31.7 28.0311 31.3962 28.7629 30.8795V31.452H31.353V22.4943H28.7629ZM28.7543 26.9734C28.7543 28.2462 27.7035 29.2781 26.4073 29.2781C25.1112 29.2781 24.0604 28.2462 24.0604 26.9734C24.0604 25.7005 25.1112 24.6689 26.4073 24.6689C27.7035 24.6689 28.7543 25.7005 28.7543 26.9734ZM56.0878 23.0673V22.4943H58.6779V31.452H56.0878V30.8795C55.3561 31.3962 54.4729 31.7 53.5203 31.7C50.9992 31.7 48.9555 29.5838 48.9555 26.9734C48.9555 24.3629 50.9992 22.2467 53.5203 22.2467C54.4729 22.2467 55.3561 22.5505 56.0878 23.0673ZM53.7323 29.2781C55.0285 29.2781 56.0791 28.2462 56.0791 26.9734C56.0791 25.7005 55.0285 24.6689 53.7323 24.6689C52.436 24.6689 51.3854 25.7005 51.3854 26.9734C51.3854 28.2462 52.436 29.2781 53.7323 29.2781ZM59.802 29.9579C59.802 29.0283 60.5296 28.2748 61.4273 28.2748C62.3249 28.2748 63.0527 29.0283 63.0527 29.9579C63.0527 30.8872 62.3249 31.6408 61.4273 31.6408C60.5296 31.6408 59.802 30.8872 59.802 29.9579ZM44.353 22.2534C43.3184 22.2534 42.3392 22.586 41.6845 23.5036V22.4948H39.1056V31.452H41.7162V26.7447C41.7162 25.3825 42.5984 24.7155 43.6605 24.7155C44.7988 24.7155 45.4532 25.4196 45.4532 26.7262V31.452H48.0402V25.7556C48.0402 23.671 46.4396 22.2534 44.353 22.2534ZM35.3597 22.4944V23.6611C35.8789 22.9613 36.8463 22.495 37.8981 22.495V25.1015C37.8932 25.1014 37.8885 25.1012 37.8837 25.1009C37.8783 25.1006 37.8729 25.1003 37.8674 25.1003C36.8425 25.1003 35.3656 25.8588 35.3656 27.2698V31.452H32.7079V22.4944H35.3597Z" fill="#17120F"/>
</svg>
