<svg width="69" height="49" viewBox="0 0 69 49" fill="none" xmlns="http://www.w3.org/2000/svg">
<rect x="0.5" y="1" width="68" height="47" rx="3.5" fill="white" stroke="#F3F3F3"/>
<path fill-rule="evenodd" clip-rule="evenodd" d="M33.2123 29.4418V24.0285V24.0274H36.1155C37.3124 24.0281 38.3183 23.6488 39.1333 22.8893C39.9568 22.1685 40.4173 21.1322 40.3939 20.052C40.4102 18.9777 39.9506 17.9491 39.1333 17.2306C38.3255 16.467 37.2391 16.0503 36.1155 16.0733H31.4551V29.4418H33.2123ZM33.2123 22.3858V17.7192V17.7181H36.1591C36.8159 17.7 37.449 17.9583 37.8978 18.4274C38.3492 18.8564 38.604 19.4456 38.604 20.061C38.604 20.6764 38.3492 21.2656 37.8978 21.6946C37.4435 22.1538 36.8124 22.4047 36.1591 22.3858H33.2123Z" fill="#5F6368"/>
<path fill-rule="evenodd" clip-rule="evenodd" d="M47.519 21.0142C46.7674 20.3358 45.7421 19.9966 44.4433 19.9966C42.7749 19.9966 41.515 20.5939 40.6637 21.7886L42.2114 22.7411C42.7833 21.9319 43.56 21.5272 44.5416 21.5272C45.1674 21.5201 45.773 21.7437 46.2376 22.1534C46.701 22.5277 46.9675 23.0859 46.9634 23.6734V24.0659C46.2882 23.6926 45.4289 23.5059 44.3855 23.5059C43.1631 23.5073 42.1859 23.7875 41.4539 24.3464C40.7219 24.9054 40.3559 25.6581 40.3559 26.6046C40.34 27.4664 40.7225 28.2894 41.3972 28.8446C42.0913 29.4419 42.9539 29.7406 43.9849 29.7406C45.1928 29.7406 46.1605 29.2179 46.8881 28.1726H46.9645V29.4419H48.6453V23.8046C48.6461 22.6227 48.2706 21.6926 47.519 21.0142ZM42.7528 27.7619C42.3847 27.5026 42.1676 27.0854 42.17 26.6419C42.17 26.1438 42.409 25.7288 42.8903 25.3875C43.3669 25.0512 43.9621 24.883 44.6759 24.883C45.656 24.883 46.42 25.0963 46.9679 25.523C46.9679 26.244 46.6768 26.8723 46.0948 27.4078C45.5705 27.9203 44.8597 28.2087 44.1182 28.2099C43.6238 28.219 43.1414 28.0607 42.7528 27.7619Z" fill="#5F6368"/>
<path fill-rule="evenodd" clip-rule="evenodd" d="M58.2939 20.2952L52.4264 33.4738H50.6124L52.7898 28.8626L48.9316 20.2952H50.8416L53.6302 26.8658H53.6684L56.3806 20.2952H58.2939Z" fill="#5F6368"/>
<path fill-rule="evenodd" clip-rule="evenodd" d="M26.1106 22.8616C26.1112 22.3383 26.066 21.8158 25.9752 21.3H18.5645V24.2579H22.809C22.6335 25.2125 22.0665 26.0556 21.2395 26.5918V28.5118H23.7727C25.256 27.1752 26.1106 25.1987 26.1106 22.8616Z" fill="#4285F4"/>
<path fill-rule="evenodd" clip-rule="evenodd" d="M18.5661 30.3666C20.6867 30.3666 22.4723 29.6861 23.7744 28.5128L21.2412 26.5928C20.5361 27.06 19.628 27.3266 18.5661 27.3266C16.5164 27.3266 14.7766 25.9762 14.1545 24.1565H11.5449V26.1352C12.8788 28.7292 15.5954 30.3665 18.5661 30.3666Z" fill="#34A853"/>
<path fill-rule="evenodd" clip-rule="evenodd" d="M14.1534 24.1566C13.8245 23.203 13.8245 22.1704 14.1534 21.2168V19.2382H11.5438C10.4281 21.4079 10.4281 23.9655 11.5438 26.1352L14.1534 24.1566Z" fill="#FBBC04"/>
<path fill-rule="evenodd" clip-rule="evenodd" d="M18.5661 18.0466C19.6867 18.0287 20.7696 18.4425 21.5806 19.1986L23.8235 17.0066C22.4013 15.7011 20.5171 14.9843 18.5661 15.0066C15.5954 15.0067 12.8788 16.644 11.5449 19.2381L14.1545 21.2167C14.7766 19.397 16.5164 18.0466 18.5661 18.0466Z" fill="#EA4335"/>
</svg>
