<svg width="69" height="49" viewBox="0 0 69 49" fill="none" xmlns="http://www.w3.org/2000/svg">
<rect x="0.5" y="1" width="68" height="47" rx="3.5" fill="white" stroke="#F3F3F3"/>
<path d="M30.6349 33.4199H26.041L28.9143 16.619H33.5079L30.6349 33.4199Z" fill="#15195A"/>
<path d="M47.2881 17.0297C46.382 16.6898 44.9448 16.3145 43.1678 16.3145C38.6312 16.3145 35.4366 18.6021 35.417 21.8728C35.3793 24.2859 37.7042 25.6261 39.4431 26.4307C41.2204 27.2529 41.8245 27.7896 41.8245 28.5224C41.8065 29.6479 40.3884 30.1668 39.0658 30.1668C37.2317 30.1668 36.249 29.8993 34.7556 29.2731L34.1507 29.0047L33.5078 32.7761C34.5852 33.2403 36.5703 33.6522 38.6312 33.6702C43.4514 33.6702 46.5895 31.418 46.6266 27.9326C46.645 26.02 45.4173 24.5545 42.7706 23.357C41.1639 22.5883 40.1799 22.0699 40.1799 21.2834C40.1987 20.5684 41.0121 19.836 42.8259 19.836C44.3193 19.8001 45.4166 20.1396 46.2478 20.4793L46.6633 20.6577L47.2881 17.0297V17.0297V17.0297Z" fill="#15195A"/>
<path fill-rule="evenodd" clip-rule="evenodd" d="M55.5117 16.619H59.065L62.7711 33.4196H58.5177C58.5177 33.4196 58.1014 31.4893 57.9695 30.8994H52.0714C51.9008 31.346 51.1073 33.4196 51.1073 33.4196H46.2871L53.1107 18.013C53.5834 16.9226 54.4159 16.619 55.5117 16.619ZM55.2287 22.7672C55.2287 22.7672 53.7729 26.5027 53.3946 27.4679H57.213C57.0241 26.6279 56.1541 22.6064 56.1541 22.6064L55.8331 21.1587C55.6979 21.5315 55.5024 22.044 55.3705 22.3897C55.2811 22.624 55.221 22.7817 55.2287 22.7672Z" fill="#15195A"/>
<path fill-rule="evenodd" clip-rule="evenodd" d="M6.13811 16.619H13.5291C14.531 16.6544 15.3439 16.9582 15.6084 18.0313L17.2145 25.7498C17.2147 25.7505 17.215 25.7513 17.2152 25.7521L17.7068 28.0756L22.2057 16.619H27.0633L19.8426 33.4021H14.9847L10.8903 18.8036C9.47752 18.0226 7.86519 17.3944 6.0625 16.9585L6.13811 16.619Z" fill="#15195A"/>
</svg>
