<svg width="69" height="49" viewBox="0 0 69 49" fill="none" xmlns="http://www.w3.org/2000/svg">
<rect x="0.5" y="1" width="68" height="47" rx="3.5" fill="white" stroke="#F3F3F3"/>
<path fill-rule="evenodd" clip-rule="evenodd" d="M20.9104 18.4118C20.4086 19.0175 19.6055 19.4952 18.8025 19.427C18.7021 18.608 19.0953 17.7379 19.5554 17.2005C20.0572 16.5777 20.9355 16.1341 21.6465 16.1C21.7302 16.9531 21.404 17.7891 20.9104 18.4118ZM21.6382 19.5891C20.9307 19.5476 20.2852 19.8061 19.7638 20.0149C19.4283 20.1492 19.1442 20.263 18.928 20.263C18.6854 20.263 18.3896 20.1431 18.0574 20.0086C17.6221 19.8322 17.1245 19.6306 16.6026 19.6403C15.4064 19.6573 14.2939 20.3483 13.6833 21.4488C12.4286 23.6497 13.3571 26.9085 14.57 28.7C15.1639 29.5872 15.8749 30.5597 16.8117 30.5256C17.2239 30.5097 17.5204 30.3814 17.8272 30.2486C18.1804 30.0958 18.5474 29.9369 19.1204 29.9369C19.6735 29.9369 20.0244 30.0916 20.3613 30.2401C20.6816 30.3813 20.9892 30.5168 21.4458 30.5085C22.4161 30.4914 23.0267 29.6213 23.6206 28.7341C24.2615 27.7819 24.5432 26.8526 24.5859 26.7116L24.5909 26.6952C24.5899 26.6942 24.582 26.6905 24.568 26.684C24.3538 26.5839 22.7162 25.8194 22.7005 23.7692C22.6847 22.0483 23.9994 21.1764 24.2063 21.0392L24.2063 21.0392L24.2064 21.0392C24.2189 21.0308 24.2274 21.0252 24.2313 21.0223C23.3948 19.7597 22.0899 19.6232 21.6382 19.5891ZM28.3551 30.4147V17.1151H33.2485C35.7746 17.1151 37.5396 18.8896 37.5396 21.4829C37.5396 24.0763 35.7412 25.8678 33.1816 25.8678H30.3794V30.4147H28.3551ZM30.3794 18.8554H32.7131C34.4697 18.8554 35.4735 19.8109 35.4735 21.4914C35.4735 23.172 34.4697 24.136 32.7048 24.136H30.3794V18.8554ZM44.223 28.8194C43.6877 29.8602 42.5083 30.517 41.2368 30.517C39.3547 30.517 38.0415 29.3739 38.0415 27.6507C38.0415 25.9445 39.3129 24.9635 41.6634 24.8185L44.1896 24.6649V23.9313C44.1896 22.8478 43.4953 22.2592 42.2573 22.2592C41.2368 22.2592 40.4924 22.7967 40.3418 23.6156H38.5183C38.5768 21.8924 40.1661 20.6384 42.3159 20.6384C44.6329 20.6384 46.1386 21.8753 46.1386 23.7948V30.4147H44.2649V28.8194H44.223ZM41.7805 28.9388C40.7015 28.9388 40.0156 28.4099 40.0156 27.5995C40.0156 26.7635 40.6764 26.2772 41.9395 26.2004L44.1896 26.0554V26.8061C44.1896 28.0516 43.1524 28.9388 41.7805 28.9388ZM52.3536 30.935C51.5422 33.264 50.6137 34.0317 48.6396 34.0317C48.4891 34.0317 47.9872 34.0147 47.8701 33.9805V32.3853C47.9955 32.4023 48.305 32.4194 48.464 32.4194C49.359 32.4194 49.8609 32.0355 50.1704 31.0374L50.3544 30.4488L46.9249 20.7663H49.0411L51.4251 28.6232H51.4669L53.8509 20.7663H55.9086L52.3536 30.935Z" fill="black"/>
</svg>
