<svg width="69" height="49" viewBox="0 0 69 49" fill="none" xmlns="http://www.w3.org/2000/svg">
<rect x="0.5" y="1" width="68" height="47" rx="3.5" fill="white" stroke="#F3F3F3"/>
<path fill-rule="evenodd" clip-rule="evenodd" d="M38.5192 21.8557C38.5274 21.4865 38.6643 21.1902 38.9326 20.9678C39.1929 20.7422 39.5344 20.6261 39.9569 20.6196H40.807V21.9407H40.2924C40.0095 21.9472 39.8649 22.0819 39.859 22.3417V22.6314H40.807V24.0001H39.859V28.0363H38.5192V21.8557ZM14.6441 24.327C14.6374 24.1151 14.5369 24.0056 14.3414 23.9985H13.2991C13.0519 24.0134 12.9249 24.148 12.9186 24.4011V26.2659C12.9249 26.5273 13.0656 26.6605 13.34 26.6681H14.295C14.3945 26.6681 14.477 26.6314 14.5429 26.5566C14.6115 26.5005 14.6441 26.4283 14.6441 26.3389V24.327ZM11.5801 24.0623C11.5869 23.5958 11.6914 23.2411 11.8942 22.9987C12.0002 22.8973 12.1334 22.8122 12.2949 22.742C12.4626 22.6672 12.6253 22.631 12.7832 22.631H14.697C15.5411 22.6382 15.9702 23.0972 15.9839 24.0092V26.8159C15.9774 27.1396 15.8502 27.4206 15.6033 27.6556C15.3596 27.9023 15.0679 28.0281 14.7285 28.0357H12.9187V30.0592H11.5801V24.0623ZM18.4001 26.3973C18.4001 26.4754 18.4361 26.5372 18.5073 26.5834C18.5701 26.6391 18.6496 26.6681 18.7499 26.6681H19.7783C20.011 26.6681 20.1314 26.5785 20.1381 26.3973V26.0155C20.1381 25.8072 20.0154 25.7021 19.7685 25.7021H18.7499C18.6162 25.7021 18.5235 25.7241 18.4719 25.766C18.4243 25.8153 18.4001 25.9129 18.4001 26.0576V26.3973ZM20.1383 24.2942C20.145 24.0896 20.0255 23.9918 19.7782 23.9985H17.0817V22.631H20.1178C21.0019 22.6452 21.4508 23.0703 21.4659 23.9087V26.7693C21.4584 27.1312 21.3471 27.4294 21.1309 27.6666C20.9047 27.9123 20.6134 28.0357 20.2562 28.0357H18.421C17.5278 28.0281 17.0752 27.6229 17.0614 26.8168V25.7131C17.0682 24.8707 17.5011 24.4428 18.3576 24.428H20.1383V24.2942ZM25.4989 28.5792C25.424 28.6471 25.3326 28.6852 25.2263 28.6916H22.5539V30.0592H25.679C26.067 30.0524 26.3711 29.9156 26.5939 29.6479C26.8129 29.3803 26.9268 29.0274 26.9341 28.5867V22.631H25.6066V26.3298C25.6066 26.4182 25.5674 26.4934 25.4881 26.5566C25.4065 26.6314 25.3088 26.6681 25.1965 26.6681H24.2516C24.0114 26.6681 23.8927 26.5238 23.8927 26.2348V22.631H22.5539V26.6681C22.5539 26.8884 22.5849 27.0717 22.6461 27.2156C22.7043 27.373 22.8007 27.5239 22.9346 27.6679C23.0756 27.8038 23.2162 27.8996 23.3569 27.951C23.4902 28.0074 23.6689 28.0357 23.8927 28.0357H25.6066V28.3605C25.6066 28.4429 25.5706 28.5158 25.4989 28.5792ZM27.9853 26.6681H30.3708C30.5892 26.6605 30.7024 26.5736 30.7092 26.407V26.2841C30.7092 26.2486 30.6984 26.2091 30.6777 26.1665C30.6243 26.0633 30.5588 26.012 30.4811 26.012H29.2984C28.9473 26.0053 28.6478 25.8849 28.396 25.6529C28.1416 25.4387 28.0109 25.1749 28.0036 24.8654V23.8456C28.0175 23.0501 28.4521 22.6452 29.3082 22.631H32.0749V23.9985H29.7311C29.4558 23.9985 29.3175 24.0824 29.3175 24.2495V24.382C29.3175 24.5555 29.459 24.6424 29.7413 24.6424H30.9202C31.2346 24.6496 31.5022 24.7692 31.7254 25.0024C31.9509 25.2372 32.0678 25.5167 32.0749 25.8411V26.8388C32.0678 27.1189 31.9374 27.3986 31.6866 27.6775C31.5643 27.8144 31.4392 27.9087 31.3142 27.9618C31.1846 28.0108 31.0089 28.0357 30.784 28.0357H27.9853V26.6681ZM34.4743 26.5834C34.4019 26.5372 34.3659 26.4754 34.3659 26.3973V26.0576C34.3659 25.9129 34.3909 25.8153 34.4385 25.766C34.4898 25.7241 34.5819 25.7021 34.7155 25.7021H35.7347C35.981 25.7021 36.1052 25.8072 36.1052 26.0155V26.3973C36.0983 26.5785 35.9784 26.6681 35.7457 26.6681H34.7155C34.6164 26.6681 34.5366 26.6391 34.4743 26.5834ZM35.7438 23.9985C35.9912 23.9918 36.1108 24.0896 36.1051 24.2942V24.428H34.3237C33.466 24.4428 33.0337 24.8707 33.0278 25.7131V26.8168C33.0403 27.6229 33.4936 28.0281 34.3861 28.0357H36.2224C36.5801 28.0357 36.8717 27.9123 37.0965 27.6666C37.3115 27.4294 37.4237 27.1312 37.4308 26.7693V23.9087C37.4169 23.0703 36.968 22.6452 36.0844 22.631H33.048V23.9985H35.7438ZM44.6148 24.2368V24.2686L42.9359 24.8973V24.3482C42.9359 24.246 42.9831 24.1629 43.0757 24.0998C43.1503 24.0317 43.2467 23.9985 43.3664 23.9985H44.2981C44.3897 23.9985 44.4661 24.0192 44.5284 24.0623C44.5862 24.1068 44.6148 24.1664 44.6148 24.2368ZM42.9573 26.2867V26.2016L45.9773 25.0209V23.9397C45.9639 23.081 45.5415 22.6452 44.7077 22.631H42.903C42.0493 22.6452 41.6149 23.0661 41.5999 23.8932L41.6113 26.6302C41.6113 26.8916 41.6387 27.1014 41.6939 27.2595C41.7444 27.4111 41.8445 27.5584 41.9918 27.7034C42.1176 27.8226 42.2619 27.9087 42.4224 27.9611C42.5695 28.0108 42.7772 28.0357 43.044 28.0357H45.9683V26.6681H43.2181C43.1428 26.6681 43.0861 26.627 43.044 26.5463C42.9859 26.4832 42.9573 26.3962 42.9573 26.2867ZM48.8109 28.0357C48.6082 28.0357 48.4231 28.0174 48.2554 27.9832C48.0794 27.9548 47.9041 27.8736 47.7249 27.7369C47.5411 27.5776 47.4143 27.3994 47.3446 27.2022C47.271 27.0085 47.2353 26.7891 47.2353 26.542V23.9899C47.2279 23.7819 47.249 23.599 47.2978 23.4408C47.343 23.2823 47.4375 23.1277 47.5804 22.976C47.7434 22.8167 47.9095 22.7109 48.0853 22.659C48.2541 22.6168 48.4445 22.5957 48.6578 22.5957H50.7094V22.9153H48.7052C48.3515 22.9153 48.0733 22.9877 47.8699 23.1324C47.6618 23.2905 47.5559 23.5625 47.5559 23.9461V26.4999C47.5559 26.6795 47.5834 26.8542 47.6384 27.0228C47.6946 27.1887 47.788 27.3341 47.9226 27.461C48.0683 27.5712 48.2138 27.6399 48.3553 27.6679C48.5032 27.7003 48.6613 27.7155 48.8293 27.7155H50.7418V28.0357H48.8109ZM53.2968 24.7246H55.9869V26.6432C55.9869 27.3515 55.6438 27.7085 54.9628 27.7155H53.3328C53.0517 27.7155 52.7944 27.6209 52.5619 27.4294C52.4285 27.3244 52.344 27.2022 52.3102 27.0655C52.2762 26.9354 52.2596 26.791 52.2596 26.6331V25.8185C52.2596 25.4812 52.3525 25.2153 52.5406 25.0218C52.7226 24.8311 52.9745 24.732 53.2968 24.7246ZM56.2643 27.1081C56.2908 26.9495 56.3066 26.769 56.3066 26.5636V24.1116C56.3119 23.6995 56.1914 23.3341 55.9443 23.0171C55.8626 22.9087 55.7746 22.826 55.6806 22.7693C55.5913 22.71 55.4949 22.6689 55.3886 22.648C55.1826 22.6133 54.9547 22.5957 54.7028 22.5957H51.9471V22.9153H54.8538C55.0393 22.9153 55.2056 22.9349 55.3538 22.9732C55.5003 23.0235 55.6294 23.1203 55.7385 23.2655C55.9104 23.4889 55.9967 23.7489 55.9967 24.0452V24.4055H53.3322C52.416 24.4271 51.9509 24.9023 51.9374 25.8308V26.6533C51.9374 27.0862 52.0724 27.4237 52.3389 27.6666C52.5999 27.9123 52.9369 28.0357 53.3522 28.0357H54.9519C55.3672 28.0432 55.7158 27.8996 55.9967 27.6051C56.1318 27.4471 56.2209 27.2808 56.2643 27.1081ZM59.3148 22.9153C58.5685 22.9294 58.201 23.3341 58.2149 24.1308V28.0357H57.8943V24.1321C57.8794 23.1073 58.3699 22.5957 59.3663 22.5957H59.7225V22.9153H59.3148ZM62.198 22.9172H64.7336V26.5019C64.7247 26.9428 64.5916 27.2523 64.3298 27.4316C64.0696 27.6229 63.7308 27.7176 63.3169 27.7176H62.2086C62.0265 27.7176 61.8619 27.6982 61.7138 27.6591C61.5651 27.6237 61.4328 27.5712 61.3122 27.5011C61.0677 27.3497 60.9472 27.0682 60.9472 26.6542V24.1644C60.9396 23.9712 60.9607 23.8056 61.0076 23.6674C61.0433 23.5305 61.1272 23.3936 61.261 23.2555C61.4006 23.1038 61.5497 23.0106 61.7041 22.976C61.8517 22.9375 62.0155 22.9172 62.198 22.9172ZM63.4084 28.0379C64.4768 28.0593 65.0252 27.5542 65.0538 26.5238V20.8333H64.7334V22.5973H62.2174C61.1698 22.5894 60.6397 23.1097 60.6257 24.1562V26.4796C60.6182 26.6976 60.6397 26.8973 60.6887 27.0764C60.7252 27.2563 60.8162 27.4316 60.9578 27.6051C61.146 27.7981 61.3416 27.9221 61.5459 27.9745C61.7442 28.0162 61.9688 28.0379 62.2198 28.0379H63.4084Z" fill="#008ACA"/>
<path fill-rule="evenodd" clip-rule="evenodd" d="M4.45831 22.3208C4.35332 22.3434 4.24817 22.3793 4.1431 22.4254C3.97754 22.4966 3.83697 22.5894 3.71381 22.6927C3.70935 22.5566 3.71187 22.4267 3.72045 22.3019C3.78254 20.8563 4.97694 19.7 6.44433 19.7C7.86932 19.7 9.03815 20.7878 9.16248 22.1738C9.18334 22.3335 9.19041 22.5032 9.18259 22.6794C8.98876 22.4995 8.74001 22.3782 8.43909 22.3217C8.2462 21.4045 7.42859 20.7152 6.44845 20.7152C5.46873 20.7152 4.65155 21.4035 4.45831 22.3208ZM4.28342 22.742C4.45133 22.6672 4.61428 22.631 4.77176 22.631H8.04136C8.88572 22.6382 9.31542 23.0972 9.32897 24.0092V26.657C9.31542 27.5677 8.88572 28.0281 8.04136 28.0357H4.77176C4.61428 28.0357 4.45133 27.9989 4.28342 27.9255C4.12165 27.8547 3.98856 27.7699 3.8824 27.6666C3.67932 27.4253 3.57551 27.0713 3.56836 26.6037V24.0623C3.57551 23.5958 3.67932 23.2411 3.8824 22.9987C3.98856 22.8973 4.12165 22.8122 4.28342 22.742Z" fill="#E2001A"/>
</svg>
