<svg width="68" height="19" viewBox="0 0 68 19" fill="none" xmlns="http://www.w3.org/2000/svg">
<path fill-rule="evenodd" clip-rule="evenodd" d="M64.6076 0.951916L62.4391 14.9074C62.3967 15.178 62.6036 15.4216 62.8732 15.4216H65.0533C65.4158 15.4216 65.7231 15.1561 65.7787 14.7943L67.9171 1.09026C67.9597 0.819703 67.7526 0.575195 67.483 0.575195H65.0419C64.8264 0.575852 64.6409 0.735427 64.6076 0.951916Z" fill="#298FC2"/>
<path fill-rule="evenodd" clip-rule="evenodd" d="M61.8362 5.41559H59.3077C59.0906 5.41559 58.9061 5.57495 58.8736 5.79144L58.7615 6.50723L58.5838 6.24784C58.0362 5.44361 56.8155 5.1748 55.5964 5.1748C52.8006 5.1748 50.4136 7.31693 49.9485 10.3217C49.7075 11.8205 50.0496 13.2538 50.8901 14.2533C51.6628 15.1722 52.7642 15.5553 54.0769 15.5553C56.3295 15.5553 57.5787 14.09 57.5787 14.09L57.466 14.8012C57.4236 15.0731 57.6304 15.3169 57.9018 15.3169H60.1799C60.5407 15.3169 60.8482 15.0512 60.9046 14.6894L62.2727 5.92978C62.3144 5.6601 62.1073 5.41559 61.8362 5.41559ZM58.3099 10.3973C58.0673 11.8593 56.9185 12.8409 55.4552 12.8409C54.7221 12.8409 54.1335 12.6025 53.7564 12.1509C53.3827 11.7024 53.242 11.0639 53.3593 10.3527C53.5889 8.90314 54.7537 7.88944 56.1947 7.88944C56.9131 7.88944 57.4971 8.1311 57.8819 8.5864C58.2688 9.04674 58.4217 9.6892 58.3099 10.3973Z" fill="#298FC2"/>
<path fill-rule="evenodd" clip-rule="evenodd" d="M45.9109 0.575195H40.6268C40.2661 0.575195 39.9586 0.840936 39.9022 1.20211L37.7653 14.9068C37.7229 15.1773 37.93 15.421 38.1996 15.421H40.9112C41.1628 15.421 41.3784 15.2351 41.4178 14.9819L42.0243 11.0971C42.0799 10.7353 42.3883 10.4695 42.749 10.4695H44.4208C47.9017 10.4695 49.9096 8.76586 50.435 5.39004C50.6722 3.91293 50.4443 2.75256 49.7605 1.9398C49.0103 1.04735 47.6792 0.575195 45.9109 0.575195ZM46.5204 5.58031C46.2322 7.49806 44.7837 7.49806 43.3823 7.49806H42.586L43.146 3.91648C43.1791 3.69999 43.3631 3.54063 43.5801 3.54063H43.9456C44.8988 3.54063 45.7996 3.54063 46.2647 4.09072C46.5421 4.41885 46.6262 4.90655 46.5204 5.58031Z" fill="#298FC2"/>
<path fill-rule="evenodd" clip-rule="evenodd" d="M37.4364 5.63379H34.8938C34.6512 5.63379 34.4234 5.75571 34.286 5.95973L30.7793 11.1846L29.293 6.16352C29.1995 5.8494 28.913 5.63379 28.5884 5.63379H26.0901C25.7863 5.63379 25.5756 5.9339 25.6721 6.22306L28.4726 14.5363L25.8398 18.2961C25.6327 18.5922 25.8413 18.9994 26.199 18.9994H28.7383C28.9794 18.9994 29.2049 18.8805 29.3416 18.6807L37.7978 6.33316C38.0003 6.03787 37.7924 5.63379 37.4364 5.63379Z" fill="#28356A"/>
<path fill-rule="evenodd" clip-rule="evenodd" d="M24.156 5.41559H21.626C21.4104 5.41559 21.2241 5.57495 21.191 5.79144L21.0789 6.50723L20.9021 6.24784C20.3545 5.44361 19.1329 5.1748 17.914 5.1748C15.118 5.1748 12.7301 7.31693 12.2651 10.3217C12.0234 11.8205 12.367 13.2538 13.2077 14.2533C13.9787 15.1722 15.0819 15.5553 16.3943 15.5553C18.6471 15.5553 19.8961 14.09 19.8961 14.09L19.7834 14.8012C19.741 15.0731 19.9481 15.3169 20.2177 15.3169H22.4965C22.859 15.3169 23.1649 15.0512 23.2221 14.6894L24.5894 5.92978C24.6327 5.6601 24.4263 5.41559 24.156 5.41559ZM20.6293 10.3973C20.3852 11.8593 19.2381 12.8409 17.7749 12.8409C17.0403 12.8409 16.4532 12.6025 16.076 12.1509C15.7021 11.7024 15.5601 11.0639 15.6789 10.3527C15.907 8.90314 17.0734 7.88944 18.5143 7.88944C19.2327 7.88944 19.8168 8.1311 20.2015 8.5864C20.5869 9.04674 20.7399 9.6892 20.6293 10.3973Z" fill="#28356A"/>
<path fill-rule="evenodd" clip-rule="evenodd" d="M8.22752 0.575195H2.94412C2.58253 0.575195 2.27504 0.840936 2.21856 1.20211L0.0816988 14.9068C0.0392862 15.1773 0.246372 15.421 0.51751 15.421H3.03976C3.40135 15.421 3.70885 15.1554 3.76532 14.7936L4.34157 11.0971C4.39718 10.7353 4.70533 10.4695 5.06627 10.4695H6.73875C10.219 10.4695 12.2275 8.76586 12.7523 5.39004C12.9886 3.91293 12.7622 2.75256 12.0784 1.9398C11.3275 1.04735 9.99565 0.575195 8.22752 0.575195ZM8.8371 5.58031C8.54822 7.49806 7.0997 7.49806 5.69922 7.49806H4.90182L5.46119 3.91648C5.49451 3.69999 5.67974 3.54063 5.89613 3.54063H6.26162C7.21569 3.54063 8.11566 3.54063 8.58068 4.09072C8.85809 4.41885 8.94292 4.90655 8.8371 5.58031Z" fill="#28356A"/>
</svg>
