<svg width="23" height="18" viewBox="0 0 23 18" fill="none" xmlns="http://www.w3.org/2000/svg">
<path d="M22.6175 13.6776C22.1875 14.2206 21.1345 14.6076 21.1345 14.6076L13.3025 17.4246V15.3466L19.0665 13.2896C19.7205 13.0556 19.8205 12.7236 19.2895 12.5496C18.7585 12.3746 17.7975 12.4246 17.1425 12.6606L13.3025 14.0146V11.8596L13.5235 11.7836C13.5235 11.7836 14.6335 11.3906 16.1935 11.2176C17.7545 11.0456 19.6655 11.2416 21.1655 11.8106C22.8555 12.3456 23.0455 13.1346 22.6175 13.6776ZM14.0475 10.1406V4.82863C14.0475 4.20463 13.9325 3.63063 13.3475 3.46863C12.9005 3.32463 12.6225 3.74063 12.6225 4.36363V17.6666L9.03948 16.5276V0.666626C10.5625 0.949626 12.7825 1.61963 13.9755 2.02163C17.0105 3.06463 18.0395 4.36363 18.0395 7.28863C18.0395 10.1396 16.2815 11.2206 14.0475 10.1406ZM2.46448 15.1306C0.728476 14.6406 0.439476 13.6206 1.23048 13.0336C1.96148 12.4916 3.20548 12.0836 3.20548 12.0836L8.34348 10.2536V12.3396L4.64548 13.6646C3.99248 13.8986 3.89248 14.2306 4.42248 14.4046C4.95448 14.5796 5.91548 14.5296 6.56948 14.2946L8.34348 13.6506V15.5156L7.98948 15.5756C6.21548 15.8656 4.32648 15.7446 2.46448 15.1306Z" fill="#F1F1F1"/>
</svg>
