<svg width="20" height="19" viewBox="0 0 20 19" fill="none" xmlns="http://www.w3.org/2000/svg">
<path d="M0.578187 12.2704C1.17406 14.2185 2.3796 15.9237 4.01735 17.1352C5.65509 18.3467 7.6385 19.0003 9.67562 19C14.9291 19 19.1875 14.7464 19.1875 9.5C19.1875 4.25363 14.9291 7.12244e-07 9.67681 7.12244e-07C7.26532 -0.000932167 4.94359 0.914564 3.18173 2.56111C1.41987 4.20766 0.349551 6.46221 0.1875 8.86825L0.191063 8.87538L5.30206 10.9761C5.76303 10.6709 6.30899 10.5199 6.86125 10.545L9.18875 7.16775L9.18756 7.12025C9.18851 6.16237 9.56936 5.24397 10.2466 4.56654C10.9238 3.8891 11.8421 3.50795 12.7999 3.50669C13.7578 3.50795 14.6761 3.8891 15.3533 4.56654C16.0305 5.24397 16.4114 6.16237 16.4123 7.12025C16.4119 7.60158 16.3155 8.07799 16.1288 8.5216C15.942 8.96521 15.6686 9.36709 15.3245 9.70372C14.9805 10.0403 14.5728 10.3049 14.1252 10.482C13.6776 10.6591 13.1992 10.7451 12.718 10.735L9.38825 13.11C9.39955 13.5499 9.30068 13.9857 9.10064 14.3777C8.90061 14.7697 8.60575 15.1054 8.24288 15.3544C7.88002 15.6034 7.46067 15.7577 7.02296 15.8033C6.58526 15.849 6.1431 15.7844 5.73669 15.6156C5.34662 15.4531 5.00141 15.199 4.73024 14.8749C4.45906 14.5509 4.26988 14.1662 4.17869 13.7536L0.579375 12.2704H0.578187Z" fill="#F1F1F1"/>
<path d="M5.9673 15.0613C6.46205 15.2501 7.01091 15.2388 7.49747 15.0298C7.98403 14.8207 8.37004 14.4304 8.57362 13.9415C8.7772 13.4526 8.78235 12.9037 8.58797 12.4111C8.39359 11.9185 8.01498 11.5209 7.53242 11.3028C7.05396 11.1032 6.51715 11.0947 6.03261 11.2791L7.24742 11.7826C7.4291 11.8582 7.5941 11.9689 7.733 12.1083C7.8719 12.2477 7.98199 12.4131 8.05697 12.595C8.13195 12.777 8.17037 12.9719 8.17002 13.1687C8.16966 13.3655 8.13055 13.5603 8.05492 13.7419C7.97929 13.9236 7.86861 14.0886 7.72921 14.2275C7.58981 14.3664 7.42442 14.4765 7.24247 14.5515C7.06053 14.6265 6.8656 14.6649 6.66881 14.6645C6.47202 14.6642 6.27722 14.6251 6.09555 14.5494L4.91992 14.0626C5.13386 14.513 5.50695 14.8695 5.9673 15.0613ZM10.3919 7.12044C10.3922 7.75896 10.6459 8.37126 11.0971 8.82298C11.5484 9.27471 12.1605 9.52894 12.799 9.52988C13.4375 9.52894 14.0496 9.27471 14.5008 8.82298C14.9521 8.37126 15.2057 7.75896 15.206 7.12044C15.2051 6.48234 14.9512 5.87064 14.5 5.41943C14.0488 4.96822 13.4371 4.71432 12.799 4.71338C12.1609 4.71432 11.5492 4.96822 11.098 5.41943C10.6468 5.87064 10.3929 6.48234 10.3919 7.12044ZM12.8025 5.30713C13.0402 5.30728 13.2755 5.35425 13.495 5.44534C13.7145 5.53643 13.9139 5.66987 14.0819 5.83803C14.2498 6.00619 14.383 6.20579 14.4738 6.42541C14.5646 6.64504 14.6113 6.88041 14.6111 7.11807C14.611 7.35573 14.564 7.59103 14.4729 7.81054C14.3818 8.03005 14.2484 8.22946 14.0802 8.3974C13.912 8.56535 13.7125 8.69852 13.4928 8.78932C13.2732 8.88013 13.0378 8.92678 12.8002 8.92663C12.3202 8.92631 11.86 8.73534 11.5208 8.39573C11.1817 8.05611 10.9913 7.59567 10.9916 7.11569C10.9919 6.63572 11.1829 6.17552 11.5225 5.83635C11.8621 5.49718 12.3226 5.30681 12.8025 5.30713Z" fill="#F1F1F1"/>
</svg>
