<svg width="118" height="118" viewBox="0 0 118 118" fill="none" xmlns="http://www.w3.org/2000/svg">
<g clip-path="url(#clip0_316_4341)">
<path d="M58.9992 6.55554C48.6266 6.55554 38.487 9.63135 29.8626 15.394C21.2381 21.1567 14.5162 29.3474 10.5468 38.9304C6.57741 48.5133 5.53884 59.0582 7.56242 69.2314C9.586 79.4046 14.5808 88.7493 21.9153 96.0838C29.2498 103.418 38.5945 108.413 48.7678 110.437C58.941 112.46 69.4858 111.422 79.0688 107.452C88.6517 103.483 96.8425 96.761 102.605 88.1366C108.368 79.5121 111.444 69.3725 111.444 59C111.444 45.0909 105.918 31.7514 96.083 21.9162C86.2477 12.0809 72.9083 6.55554 58.9992 6.55554ZM58.9992 104.889C49.9232 104.889 41.051 102.198 33.5047 97.1552C25.9583 92.1129 20.0766 84.946 16.6034 76.5609C13.1301 68.1758 12.2214 58.9491 13.992 50.0475C15.7626 41.1459 20.1331 32.9693 26.5508 26.5516C32.9685 20.134 41.1451 15.7635 50.0467 13.9928C58.9483 12.2222 68.175 13.131 76.5601 16.6042C84.9452 20.0774 92.112 25.9591 97.1544 33.5055C102.197 41.0519 104.888 49.924 104.888 59C104.888 71.1705 100.053 82.8425 91.4475 91.4483C82.8417 100.054 71.1696 104.889 58.9992 104.889Z" fill="#FF6417"/>
<path d="M91.7779 39.6611C91.1638 39.0506 90.3331 38.7079 89.4671 38.7079C88.6012 38.7079 87.7704 39.0506 87.1563 39.6611L50.7729 75.8805L31.1063 56.2139C30.5064 55.5662 29.6739 55.1834 28.7918 55.1496C27.9097 55.1158 27.0503 55.4338 26.4027 56.0336C25.755 56.6334 25.3722 57.466 25.3384 58.3481C25.3046 59.2302 25.6226 60.0896 26.2224 60.7372L50.7729 85.2222L91.7779 44.3155C92.0852 44.0108 92.329 43.6483 92.4954 43.2489C92.6618 42.8495 92.7475 42.421 92.7475 41.9883C92.7475 41.5556 92.6618 41.1272 92.4954 40.7278C92.329 40.3283 92.0852 39.9658 91.7779 39.6611Z" fill="#FF6417"/>
</g>
<defs>
<clipPath id="clip0_316_4341">
<rect width="118" height="118" fill="white"/>
</clipPath>
</defs>
</svg>
