<svg width="100" height="100" viewBox="0 0 100 100" fill="none" xmlns="http://www.w3.org/2000/svg">
<path d="M21.9059 46.875C21.9059 46.0462 22.2351 45.2513 22.8211 44.6653C23.4072 44.0792 24.2021 43.75 25.0309 43.75H31.2809V37.5C31.2809 36.6712 31.6101 35.8763 32.1961 35.2903C32.7822 34.7042 33.5771 34.375 34.4059 34.375C35.2347 34.375 36.0295 34.7042 36.6156 35.2903C37.2016 35.8763 37.5309 36.6712 37.5309 37.5V43.75H43.7809C44.6097 43.75 45.4045 44.0792 45.9906 44.6653C46.5766 45.2513 46.9059 46.0462 46.9059 46.875C46.9059 47.7038 46.5766 48.4987 45.9906 49.0847C45.4045 49.6708 44.6097 50 43.7809 50H37.5309V56.25C37.5309 57.0788 37.2016 57.8737 36.6156 58.4597C36.0295 59.0458 35.2347 59.375 34.4059 59.375C33.5771 59.375 32.7822 59.0458 32.1961 58.4597C31.6101 57.8737 31.2809 57.0788 31.2809 56.25V50H25.0309C24.2021 50 23.4072 49.6708 22.8211 49.0847C22.2351 48.4987 21.9059 47.7038 21.9059 46.875ZM68.7496 56.25C68.7496 57.9076 68.0911 59.4973 66.919 60.6694C65.7469 61.8415 64.1572 62.5 62.4996 62.5C60.842 62.5 59.2523 61.8415 58.0802 60.6694C56.9081 59.4973 56.2496 57.9076 56.2496 56.25C56.2496 54.5924 56.9081 53.0027 58.0802 51.8306C59.2523 50.6585 60.842 50 62.4996 50C64.1572 50 65.7469 50.6585 66.919 51.8306C68.0911 53.0027 68.7496 54.5924 68.7496 56.25ZM68.7496 43.75C70.4072 43.75 71.9969 43.0915 73.169 41.9194C74.3411 40.7473 74.9996 39.1576 74.9996 37.5C74.9996 35.8424 74.3411 34.2527 73.169 33.0806C71.9969 31.9085 70.4072 31.25 68.7496 31.25C67.092 31.25 65.5023 31.9085 64.3302 33.0806C63.1581 34.2527 62.4996 35.8424 62.4996 37.5C62.4996 39.1576 63.1581 40.7473 64.3302 41.9194C65.5023 43.0915 67.092 43.75 68.7496 43.75ZM6.25586 46.875C6.25586 39.4158 9.21902 32.2621 14.4935 26.9876C19.7679 21.7132 26.9216 18.75 34.3809 18.75H65.6809C73.1401 18.75 80.2938 21.7132 85.5682 26.9876C90.8427 32.2621 93.8058 39.4158 93.8058 46.875C93.8058 54.3342 90.8427 61.4879 85.5682 66.7624C80.2938 72.0368 73.1401 75 65.6809 75H34.3809C26.9216 75 19.7679 72.0368 14.4935 66.7624C9.21902 61.4879 6.25586 54.3342 6.25586 46.875ZM34.3809 25C28.5792 25 23.0153 27.3047 18.9129 31.407C14.8105 35.5094 12.5059 41.0734 12.5059 46.875C12.5059 52.6766 14.8105 58.2406 18.9129 62.343C23.0153 66.4453 28.5792 68.75 34.3809 68.75H65.6809C71.4825 68.75 77.0465 66.4453 81.1488 62.343C85.2512 58.2406 87.5558 52.6766 87.5558 46.875C87.5558 41.0734 85.2512 35.5094 81.1488 31.407C77.0465 27.3047 71.4825 25 65.6809 25H34.3809Z" fill="#FF6417"/>
</svg>
