<svg width="101" height="100" viewBox="0 0 101 100" fill="none" xmlns="http://www.w3.org/2000/svg">
<path d="M21.4987 62.5L18.9987 60.4167C10.6654 52.5 4.83203 47.5 4.83203 41.25C4.83203 36.25 8.9987 32.0833 13.9987 32.0833C16.9154 32.0833 19.832 33.3333 21.4987 35.4167C23.1654 33.3333 26.082 32.0833 28.9987 32.0833C33.9987 32.0833 38.1654 35.8333 38.1654 41.25C38.1654 47.5 32.332 52.5 23.9987 60.4167L21.4987 62.5ZM63.1654 16.6667C58.7451 16.6667 54.5059 18.4226 51.3803 21.5482C48.2546 24.6738 46.4987 28.9131 46.4987 33.3333C46.4987 37.7536 48.2546 41.9928 51.3803 45.1184C54.5059 48.244 58.7451 50 63.1654 50C67.5856 50 71.8249 48.244 74.9505 45.1184C78.0761 41.9928 79.832 37.7536 79.832 33.3333C79.832 28.9131 78.0761 24.6738 74.9505 21.5482C71.8249 18.4226 67.5856 16.6667 63.1654 16.6667ZM63.1654 42.0833C60.8447 42.0833 58.6191 41.1615 56.9782 39.5205C55.3372 37.8796 54.4154 35.654 54.4154 33.3333C54.4154 31.0127 55.3372 28.7871 56.9782 27.1461C58.6191 25.5052 60.8447 24.5833 63.1654 24.5833C64.3144 24.5833 65.4523 24.8097 66.5139 25.2494C67.5755 25.6891 68.54 26.3336 69.3526 27.1461C70.1651 27.9587 70.8096 28.9233 71.2493 29.9849C71.689 31.0464 71.9154 32.1843 71.9154 33.3333C71.9154 34.4824 71.689 35.6202 71.2493 36.6818C70.8096 37.7434 70.1651 38.708 69.3526 39.5205C68.54 40.333 67.5755 40.9775 66.5139 41.4173C65.4523 41.857 64.3144 42.0833 63.1654 42.0833ZM63.1654 54.1667C52.0404 54.1667 29.832 59.7083 29.832 70.8333V83.3333H96.4987V70.8333C96.4987 59.7083 74.2904 54.1667 63.1654 54.1667ZM88.582 75.4167H37.7487V70.8333C37.7487 68.1667 50.6654 62.0833 63.1654 62.0833C75.5404 62.0833 88.582 68.1667 88.582 70.8333V75.4167Z" fill="#FF6417"/>
</svg>
